<svg xmlns="http://www.w3.org/2000/svg"  viewBox="0 0 100 100" width="100px" height="100px"><path fill="#789fcf" d="M87.642,56.18c-0.934-1.718-1.852-3.444-2.769-5.17c-0.621-1.169-1.241-2.336-1.867-3.501 c-0.068-0.126-0.063-0.173-0.049-0.245l0.622-3.255c0.425-2.23,0.849-4.459,1.291-6.684c0.217-1.091-0.203-1.88-1.248-2.346 c-2.432-1.084-5.038-2.258-7.607-3.504c-0.17-0.083-0.35-0.157-0.532-0.23c-0.675-0.272-0.853-0.385-0.918-0.714 c-0.217-1.111-0.419-2.225-0.621-3.338c-0.328-1.805-0.666-3.67-1.065-5.503c-0.335-1.542-1.292-1.756-2.193-1.739 c-1.652,0.011-3.303,0.008-4.955,0.004c-1.453-0.004-2.908-0.006-4.362,0.001c-0.561,0.022-0.892-0.094-1.227-0.356 c-1.208-0.949-2.427-1.885-3.645-2.82c-1.363-1.047-2.727-2.094-4.075-3.159c-1.042-0.824-2.028-0.827-3.101-0.013 c-1.305,0.991-2.631,1.953-3.957,2.916c-0.944,0.685-1.887,1.37-2.823,2.065c-0.361,0.267-0.725,0.361-1.148,0.371 c-0.524-0.009-1.051-0.007-1.572-0.008c-1.224,0.006-2.381,0.002-3.505-0.114c-0.033-0.003-0.067-0.005-0.1-0.005l-1.478-0.001 c-1.403-0.004-2.777-0.004-4.152,0.009c-0.038-0.004-0.079-0.004-0.12-0.007c-1.218-0.099-1.627,0.585-1.756,1.166l-0.048,0.216 c-0.085,0.377-0.169,0.753-0.238,1.132l-0.245,1.341c-0.397,2.168-0.793,4.336-1.179,6.581c0,0.001-0.038,0.031-0.17,0.071 l-2.125,0.646c-2.537,0.772-5.075,1.543-7.617,2.301c-0.483,0.144-1.95,0.582-1.478,2.54c0.408,1.689,0.775,3.388,1.143,5.086 c0.368,1.704,0.737,3.407,1.146,5.101c0.077,0.321,0.006,0.474-0.36,1.026c-1.581,2.391-3.291,4.961-5.078,7.545 c-0.443,0.639-0.746,1.593,0.317,2.505c0.709,0.608,1.415,1.22,2.12,1.833c1.47,1.278,2.991,2.599,4.532,3.855 c0.697,0.57,0.949,1.077,0.929,1.872c-0.068,2.592,0.052,5.205,0.168,7.731c0.054,1.176,0.108,2.351,0.145,3.577 c0.029,1.035,0.528,1.59,1.484,1.65c1.104,0.068,2.207,0.153,3.311,0.238c1.469,0.113,2.938,0.225,4.41,0.301 c1.426,0.072,2.282,0.296,2.997,1.314c1.184,1.687,2.485,3.316,3.743,4.89c0.607,0.76,1.214,1.519,1.81,2.288 c0.25,0.32,1.008,1.3,2.297,0.712c1.708-0.776,3.492-1.48,5.218-2.162c1.043-0.411,2.085-0.822,3.12-1.252 c0.79-0.33,1.258-0.326,1.931,0.01c1.497,0.748,3.011,1.462,4.525,2.177c1.12,0.529,2.24,1.057,3.353,1.6 C59.245,86.908,59.602,87,59.937,87c0.619,0,1.163-0.315,1.625-0.943c0.836-1.136,1.689-2.26,2.542-3.384 c0.736-0.97,1.472-1.939,2.196-2.916c0.174-0.234,0.289-0.289,0.467-0.318c1.571-0.255,3.142-0.513,4.712-0.771 c1.927-0.317,3.855-0.633,5.784-0.944c1.73-0.28,2.433-1.095,2.426-2.815c-0.008-1.82-0.026-3.64-0.044-5.46l-0.024-2.49 c-0.006-0.686,0.004-1.087,0.282-1.362c0.406-0.399,0.819-0.791,1.232-1.183l2.037-1.946c1.378-1.321,2.756-2.641,4.148-3.947 C88.377,57.527,87.823,56.512,87.642,56.18z"/><path fill="#f5fcfa" d="M68.458,41.198l-5.215-4.67c-0.099-0.09-0.237-0.137-0.361-0.127 c-0.133,0.007-0.257,0.066-0.345,0.165L45.829,55.229l-8.794-7.283c-0.212-0.175-0.527-0.146-0.704,0.065l-4.465,5.391 c-0.176,0.213-0.146,0.528,0.066,0.704l14.352,11.888c0.093,0.077,0.206,0.115,0.319,0.115c0.137,0,0.274-0.057,0.373-0.166 l21.522-24.038C68.681,41.698,68.664,41.382,68.458,41.198z"/><path fill="#25262f" d="M88.659,56.345c-0.959-1.765-1.902-3.537-2.844-5.31c-0.638-1.2-1.275-2.399-1.918-3.596 c-0.069-0.13-0.065-0.178-0.051-0.252l0.639-3.343c0.436-2.29,0.872-4.579,1.326-6.865c0.223-1.12-0.208-1.931-1.282-2.409 c-2.498-1.113-5.174-2.319-7.813-3.599c-0.174-0.085-0.36-0.161-0.547-0.236c-0.693-0.279-0.876-0.396-0.942-0.733 c-0.223-1.141-0.43-2.285-0.638-3.429c-0.336-1.854-0.684-3.77-1.094-5.651c-0.344-1.584-1.327-1.804-2.252-1.786 c-1.696,0.012-3.392,0.008-5.089,0.004c-1.492-0.004-2.986-0.006-4.479,0.001c-0.576,0.022-0.917-0.097-1.26-0.365 c-1.241-0.975-2.492-1.936-3.744-2.896c-1.4-1.075-2.8-2.15-4.185-3.244c-1.07-0.847-2.083-0.85-3.185-0.014 c-1.34,1.018-2.703,2.006-4.064,2.995c-0.969,0.703-1.938,1.407-2.899,2.121c-0.371,0.274-0.745,0.371-1.179,0.381 c-0.539-0.009-1.079-0.007-1.614-0.008c-1.257,0.006-2.446,0.002-3.6-0.117c-0.034-0.003-0.068-0.005-0.103-0.005l-1.518-0.001 c-1.441-0.004-2.852-0.004-4.265,0.009c-0.039-0.004-0.081-0.004-0.124-0.007c-1.251-0.102-1.671,0.601-1.804,1.197l-0.05,0.222 c-0.087,0.387-0.174,0.773-0.245,1.162l-0.251,1.377c-0.407,2.227-0.814,4.453-1.21,6.759c0,0.001-0.039,0.032-0.174,0.073 l-2.182,0.663c-2.606,0.793-5.212,1.585-7.823,2.363c-0.496,0.147-2.003,0.598-1.518,2.608c0.419,1.734,0.796,3.479,1.174,5.224 c0.378,1.75,0.757,3.499,1.177,5.239c0.08,0.33,0.006,0.486-0.37,1.054c-1.624,2.456-3.38,5.095-5.215,7.749 c-0.455,0.656-0.767,1.636,0.325,2.572c0.729,0.624,1.453,1.253,2.178,1.883c1.51,1.312,3.072,2.669,4.654,3.959 c0.716,0.585,0.975,1.106,0.954,1.923c-0.069,2.662,0.053,5.346,0.172,7.94c0.055,1.208,0.111,2.415,0.149,3.674 c0.03,1.062,0.542,1.633,1.524,1.694c1.134,0.07,2.267,0.157,3.4,0.244c1.509,0.116,3.018,0.231,4.529,0.31 c1.465,0.074,2.343,0.304,3.078,1.35c1.216,1.732,2.552,3.405,3.845,5.022c0.624,0.78,1.247,1.561,1.859,2.35 c0.256,0.329,1.036,1.335,2.359,0.731c1.754-0.797,3.587-1.521,5.359-2.221c1.071-0.422,2.141-0.845,3.205-1.286 c0.811-0.339,1.292-0.335,1.983,0.01c1.538,0.769,3.093,1.502,4.647,2.236c1.15,0.543,2.3,1.086,3.443,1.644 c0.389,0.188,0.755,0.283,1.099,0.283c0.636,0,1.195-0.323,1.668-0.969c0.858-1.167,1.734-2.321,2.611-3.476 c0.756-0.996,1.512-1.991,2.256-2.995c0.178-0.24,0.297-0.297,0.479-0.326c1.614-0.262,3.227-0.527,4.84-0.792 c1.979-0.325,3.959-0.65,5.941-0.97c1.777-0.287,2.499-1.125,2.491-2.891c-0.008-1.869-0.026-3.738-0.045-5.607l-0.024-2.558 c-0.006-0.704,0.004-1.116,0.29-1.398c0.417-0.41,0.841-0.812,1.265-1.215l2.092-1.999c1.415-1.356,2.83-2.712,4.26-4.054 C89.414,57.729,88.845,56.686,88.659,56.345z M82.687,61.358l-2.085,1.992c-0.433,0.411-0.866,0.821-1.292,1.24 c-0.905,0.892-0.895,2.02-0.887,2.896l0.024,2.506c0.019,1.864,0.037,3.729,0.045,5.595c0.003,0.748,0.003,0.777-0.81,0.908 c-1.983,0.319-3.964,0.646-5.947,0.971c-1.611,0.265-3.223,0.529-4.836,0.791c-0.731,0.12-1.292,0.472-1.765,1.109 c-0.74,0.998-1.491,1.987-2.242,2.977c-0.883,1.163-1.766,2.325-2.63,3.502c-0.05,0.068-0.089,0.112-0.115,0.14 c-0.036-0.012-0.089-0.032-0.165-0.069c-1.15-0.561-2.308-1.106-3.465-1.653c-1.542-0.728-3.083-1.455-4.608-2.217 c-0.629-0.314-1.225-0.471-1.841-0.471c-0.57,0-1.157,0.135-1.803,0.402c-1.052,0.437-2.112,0.855-3.172,1.274 c-1.748,0.689-3.554,1.403-5.337,2.206c-0.019-0.023-0.041-0.051-0.066-0.084c-0.618-0.796-1.247-1.583-1.876-2.371 c-1.273-1.594-2.59-3.242-3.771-4.923c-1.318-1.879-3.072-2.12-4.612-2.199c-1.494-0.076-2.986-0.191-4.479-0.306 c-1.021-0.078-2.042-0.156-3.085-0.225c-0.037-1.162-0.09-2.323-0.143-3.485c-0.118-2.56-0.239-5.207-0.171-7.796 c0.038-1.435-0.499-2.555-1.688-3.525c-1.559-1.271-3.108-2.617-4.607-3.919c-0.712-0.619-1.424-1.237-2.14-1.851 c1.835-2.654,3.588-5.289,5.235-7.78c0.385-0.581,0.912-1.376,0.62-2.586c-0.416-1.725-0.791-3.459-1.167-5.193 c-0.381-1.76-0.762-3.52-1.184-5.27c-0.017-0.068-0.027-0.122-0.033-0.164c0.043-0.017,0.101-0.036,0.178-0.06 c2.614-0.778,5.224-1.572,7.833-2.365l2.181-0.663c0.898-0.271,1.43-0.853,1.58-1.725c0.381-2.223,0.787-4.442,1.192-6.662 l0.252-1.377c0.057-0.312,0.125-0.624,0.195-0.935c0.026,0.001,0.051-0.001,0.079,0.001c1.404-0.012,2.809-0.012,4.243-0.009 l1.47,0.001c1.241,0.124,2.521,0.119,3.755,0.122c0.526-0.001,1.052-0.002,1.579,0.008c0.899,0.005,1.682-0.24,2.404-0.775 c0.956-0.709,1.919-1.409,2.883-2.108c1.373-0.997,2.747-1.994,4.098-3.02c0.382-0.29,0.396-0.28,0.736-0.012 c1.392,1.101,2.8,2.182,4.208,3.262c1.246,0.957,2.491,1.913,3.727,2.884c0.904,0.709,1.801,0.769,2.505,0.792 c1.49-0.006,2.978-0.004,4.465-0.001c1.703,0.003,3.405,0.007,5.107-0.004c0.112,0.007,0.182,0.003,0.23,0.007 c0.015,0.044,0.034,0.109,0.055,0.204c0.402,1.848,0.747,3.747,1.081,5.584c0.209,1.152,0.418,2.305,0.643,3.454 c0.282,1.449,1.41,1.904,2.157,2.205c0.145,0.059,0.288,0.116,0.422,0.181c2.665,1.293,5.358,2.507,7.872,3.626 c0.072,0.032,0.12,0.059,0.152,0.077c-0.003,0.028-0.008,0.066-0.018,0.116c-0.455,2.291-0.892,4.586-1.329,6.881l-0.638,3.339 c-0.105,0.547-0.023,1.062,0.253,1.576c0.642,1.193,1.277,2.391,1.914,3.588c0.945,1.778,1.891,3.557,2.854,5.327 c0.006,0.011,0.011,0.021,0.016,0.029C85.499,58.664,84.093,60.011,82.687,61.358z"/><path fill="#25262f" d="M21.765,38.349c0.001,0.003,0.003,0.006,0.004,0.009l0.346,1.597 c0.056,0.256,0.283,0.431,0.535,0.431c0.039,0,0.078-0.004,0.118-0.012c0.295-0.065,0.482-0.357,0.418-0.652l-0.319-1.47 c0.002-0.047,0.008-0.093-0.002-0.14l-0.124-0.573l1.533-0.465c0.29-0.088,0.453-0.394,0.365-0.683 c-0.087-0.289-0.392-0.454-0.683-0.365l-1.889,0.573c-0.036,0.001-0.07-0.006-0.106,0.001c-0.304,0.066-0.497,0.365-0.431,0.669 L21.765,38.349z"/><path fill="#25262f" d="M49.297,75.283c-0.487,0.202-1.675,0.768-2.932,1.365c-1.378,0.655-2.94,1.397-3.477,1.609 c-0.552,0.218-1.108,0.438-1.669,0.663c-1.084-1.361-2.065-2.613-2.976-3.911c-2.945-4.195-7.171-4.41-8.761-4.491 c-0.876-0.045-1.75-0.104-2.641-0.169c-0.095-2.421-0.16-6.215-0.109-8.164c0.008-0.311-0.237-0.569-0.548-0.577 c-0.271,0.01-0.569,0.236-0.577,0.548c-0.055,2.112,0.024,6.358,0.131,8.743c0.013,0.284,0.236,0.515,0.52,0.535 c1.075,0.081,2.119,0.153,3.167,0.207c1.441,0.073,5.269,0.269,7.898,4.015c1.002,1.428,2.077,2.789,3.278,4.293 c0.109,0.137,0.272,0.212,0.439,0.212c0.071,0,0.142-0.014,0.21-0.041c0.69-0.277,1.375-0.549,2.051-0.815 c0.573-0.227,2.084-0.945,3.547-1.641c1.244-0.592,2.419-1.15,2.881-1.342c0.287-0.119,0.423-0.448,0.304-0.735 S49.584,75.165,49.297,75.283z"/><path fill="#25262f" d="M79.9,53.742c-0.584-1.1-1.169-2.2-1.759-3.296c-0.739-1.378-0.976-2.902-0.685-4.41l1.258-6.586 c0.049-0.255-0.083-0.511-0.319-0.618c-1.519-0.691-3.07-1.413-4.636-2.173l-0.164-0.065c-2.673-1.079-4.273-2.881-4.756-5.354 c-0.223-1.144-0.431-2.288-0.651-3.503l-0.332-1.818c-0.049-0.266-0.281-0.459-0.552-0.46l-3.86-0.007l-2.016,0.005 c-1.953,0-3.674-0.574-5.117-1.708c-1.223-0.96-2.456-1.907-3.688-2.854l-1.672-1.285c-0.034-0.026-0.069-0.05-0.107-0.067 c-0.075-0.037-0.156-0.056-0.237-0.057c-0.084-0.008-0.166,0.016-0.244,0.052c-0.037,0.017-0.072,0.038-0.105,0.063l-1.707,1.24 c-0.901,0.655-1.802,1.31-2.695,1.973c-1.448,1.074-3.09,1.619-4.878,1.619l-0.146-0.001c-0.377-0.007-0.753-0.007-1.128-0.007 h-0.744c-1.128,0-2.333-0.009-3.572-0.12c-0.302-0.017-0.583,0.201-0.61,0.511c-0.028,0.31,0.201,0.582,0.51,0.61 c1.285,0.114,2.519,0.124,3.672,0.124h0.744c0.368,0,0.737,0,1.114,0.007l0.157,0.001c2.039,0,3.906-0.619,5.552-1.841 c0.891-0.661,1.788-1.313,2.686-1.966l1.377-1.001l1.349,1.037c1.229,0.944,2.459,1.888,3.678,2.846 c1.645,1.292,3.598,1.947,5.867,1.947c0.001,0,0.003,0,0.005,0l1.956-0.004l3.39,0.006l0.26,1.426 c0.209,1.149,0.418,2.299,0.641,3.446c0.561,2.872,2.39,4.952,5.489,6.202l0.068,0.026c1.415,0.687,2.836,1.351,4.235,1.989 l-1.175,6.151c-0.34,1.764-0.064,3.547,0.798,5.155c0.588,1.095,1.173,2.193,1.757,3.292l1.073,2.017l-2.766,2.647 c-0.224,0.215-0.232,0.571-0.017,0.795c0.11,0.116,0.258,0.174,0.406,0.174c0.14,0,0.28-0.052,0.389-0.156l3.073-2.941 c0.183-0.174,0.227-0.448,0.107-0.671L79.9,53.742z"/><path fill="#25262f" d="M68.458,41.198l-5.215-4.67c-0.099-0.09-0.237-0.137-0.361-0.127 c-0.133,0.007-0.257,0.066-0.345,0.165L45.829,55.229l-8.794-7.283c-0.212-0.175-0.527-0.146-0.704,0.065l-4.465,5.391 c-0.176,0.213-0.146,0.528,0.066,0.704l14.352,11.888c0.093,0.077,0.206,0.115,0.319,0.115c0.137,0,0.274-0.057,0.373-0.166 l21.522-24.038C68.681,41.698,68.664,41.382,68.458,41.198z M46.55,64.916L32.955,53.654l3.827-4.62l8.78,7.271 c0.207,0.171,0.512,0.148,0.691-0.051l16.696-18.648l4.47,4.003L46.55,64.916z"/><path fill="#25262f" d="M23.119,48.001c0.057,0.019,0.115,0.028,0.172,0.028c0.229,0,0.444-0.146,0.52-0.376 c0.269-0.812,0.405-1.652,0.405-2.496c0-0.644-0.08-1.302-0.237-1.956l-0.152-0.639c-0.069-0.294-0.362-0.473-0.658-0.408 c-0.294,0.069-0.477,0.364-0.407,0.659l0.153,0.644c0.137,0.571,0.207,1.143,0.207,1.7c0,0.727-0.117,1.452-0.349,2.152 C22.676,47.596,22.832,47.906,23.119,48.001z"/><path fill="#25262f" d="M32.445,31.46c0.058,0.019,0.117,0.029,0.176,0.029c0.229,0,0.442-0.144,0.519-0.372 c0.128-0.379,0.229-0.778,0.298-1.183c0.209-1.215,0.427-2.446,0.649-3.671c0.054-0.299-0.144-0.583-0.442-0.637 c-0.296-0.052-0.583,0.145-0.636,0.441c-0.222,1.229-0.442,2.464-0.65,3.683c-0.06,0.349-0.146,0.69-0.256,1.016 C32.005,31.052,32.159,31.363,32.445,31.46z"/><path fill="#25262f" d="M22.238,49.601c-0.252-0.167-0.592-0.098-0.759,0.154c-0.817,1.235-1.7,2.564-2.62,3.93 c-0.155,0.231-0.113,0.542,0.099,0.723l0.107,0.091c0.103,0.088,0.229,0.131,0.355,0.131c0.155,0,0.309-0.066,0.417-0.192 c0.106-0.124,0.147-0.281,0.126-0.432c0.851-1.266,1.668-2.497,2.429-3.646C22.559,50.107,22.49,49.767,22.238,49.601z"/><path fill="#25262f" d="M26.909,36.246c0.052,0,0.106-0.008,0.159-0.024l1.043-0.317c1.332-0.403,2.516-1.13,3.425-2.1 c0.207-0.222,0.195-0.568-0.026-0.775c-0.221-0.206-0.567-0.195-0.774,0.026c-0.777,0.831-1.795,1.454-2.943,1.802l-1.043,0.317 c-0.289,0.087-0.452,0.394-0.365,0.683C26.457,36.094,26.674,36.246,26.909,36.246z"/><path fill="#25262f" d="M75.258,60.842c-1.25,1.246-2.031,2.781-2.324,4.565c-0.049,0.299,0.154,0.58,0.452,0.629 c0.03,0.006,0.059,0.008,0.089,0.008c0.264,0,0.496-0.19,0.54-0.459c0.254-1.552,0.933-2.886,2.016-3.966 c0.214-0.214,0.215-0.56,0.001-0.775C75.819,60.629,75.471,60.628,75.258,60.842z"/><path fill="#25262f" d="M69.46,72.396l-3.656,0.597c-0.412,0.068-0.819,0.166-1.21,0.292 c-0.288,0.093-0.446,0.401-0.353,0.689c0.075,0.232,0.29,0.379,0.521,0.379c0.056,0,0.113-0.009,0.168-0.027 c0.338-0.109,0.691-0.194,1.049-0.252l3.659-0.599c0.299-0.049,0.5-0.331,0.452-0.63C70.041,72.549,69.76,72.342,69.46,72.396z"/><path fill="#25262f" d="M73.356,67.863c-0.001,0-0.003,0-0.005,0c-0.302,0.003-0.545,0.25-0.542,0.552l0.033,3.425 l-0.499,0.082c-0.298,0.049-0.5,0.331-0.45,0.629c0.044,0.268,0.276,0.458,0.54,0.458c0.029,0,0.06-0.002,0.09-0.008l0.96-0.158 c0.267-0.043,0.462-0.275,0.459-0.545l-0.038-3.894C73.901,68.104,73.656,67.863,73.356,67.863z"/><path fill="#25262f" d="M61.875,74.806c-0.476,0.408-0.915,0.881-1.303,1.406c-0.608,0.821-1.224,1.635-1.842,2.448 c-0.183,0.24-0.135,0.584,0.105,0.767c0.099,0.075,0.215,0.111,0.331,0.111c0.166,0,0.329-0.074,0.437-0.217 c0.619-0.817,1.239-1.634,1.849-2.459c0.34-0.459,0.721-0.871,1.135-1.225c0.229-0.197,0.257-0.543,0.06-0.773 C62.45,74.637,62.104,74.609,61.875,74.806z"/><path fill="#25262f" d="M57.128,78.754c-1.034-0.492-2.04-0.975-3.043-1.475c-0.471-0.236-0.956-0.435-1.44-0.591 c-0.29-0.094-0.597,0.065-0.689,0.353c-0.093,0.288,0.065,0.596,0.353,0.689c0.432,0.14,0.865,0.318,1.288,0.529 c1.011,0.503,2.022,0.99,3.063,1.483c0.075,0.036,0.156,0.053,0.234,0.053c0.205,0,0.401-0.115,0.495-0.313 C57.518,79.21,57.401,78.883,57.128,78.754z"/><path fill="#25262f" d="M23.038,56.423c-0.35-0.286-0.698-0.574-1.046-0.864c-0.233-0.195-0.578-0.163-0.771,0.069 c-0.194,0.232-0.162,0.578,0.07,0.771c0.35,0.293,0.701,0.583,1.055,0.872c0.899,0.731,1.624,1.567,2.156,2.483 c0.102,0.175,0.285,0.273,0.474,0.273c0.093,0,0.188-0.024,0.274-0.074c0.262-0.152,0.351-0.487,0.199-0.748 C24.85,58.175,24.039,57.238,23.038,56.423z"/></svg>