solid exported
	facet normal -1 -1.7763568394002506e-16 0
		outer loop
			vertex 0 0 0
			vertex -3.552713678800501e-15 20 -1.2246467996456087e-15
			vertex -1.7763568394002505e-15 10 -10
		endloop
	endfacet
	facet normal -0.9999999999999593 0 2.8610229492186334e-7
		outer loop
			vertex -9.99999713897705 10 40
			vertex -10 20 30
			vertex -10 0 30
		endloop
	endfacet
	facet normal 0 -0.7071067811865476 -0.7071067811865476
		outer loop
			vertex 0 0 0
			vertex -1.7763568394002505e-15 10 -10
			vertex 10 0 0
		endloop
	endfacet
	facet normal 0.08035615159982373 -0.6634959728014628 -0.7438521244012865
		outer loop
			vertex -1.7763568394002505e-15 10 -10
			vertex 15.547001838684082 10 -8.320503234863281
			vertex 10 0 0
		endloop
	endfacet
	facet normal 0.5048781613006423 -0.7001400463359921 -0.5048781613006423
		outer loop
			vertex 10 0 0
			vertex 15.547001838684082 10 -8.320503234863281
			vertex 30 0 20
		endloop
	endfacet
	facet normal 0.4968580888985554 -0.7070368893355652 -0.5032205049625493
		outer loop
			vertex 15.547001838684082 10 -8.320503234863281
			vertex 37.165985107421875 10 13.025142669677734
			vertex 30 0 20
		endloop
	endfacet
	facet normal 0.8165196915050428 -0.5772061683363514 0.011341632112591357
		outer loop
			vertex 30 0 20
			vertex 37.165985107421875 10 13.025142669677734
			vertex 29.992494583129883 0 20.54033851623535
		endloop
	endfacet
	facet normal 0.6885034628095346 -0.6811076613685052 -0.2491090831832627
		outer loop
			vertex 37.165985107421875 10 13.025142669677734
			vertex 39.9884147644043 10 20.825952529907227
			vertex 29.992494583129883 0 20.54033851623535
		endloop
	endfacet
	facet normal 0.7064838771107895 -0.7070687006714136 0.030567693948772456
		outer loop
			vertex 29.992494583129883 0 20.54033851623535
			vertex 39.9884147644043 10 20.825952529907227
			vertex 29.969135284423828 0 21.08022117614746
		endloop
	endfacet
	facet normal 0.7064823800629578 -0.7070629507718511 0.030734838642516173
		outer loop
			vertex 39.9884147644043 10 20.825952529907227
			vertex 39.95161056518555 10 21.671947479248047
			vertex 29.969135284423828 0 21.08022117614746
		endloop
	endfacet
	facet normal 0.7051547615565668 -0.707061626342729 0.053109498281161516
		outer loop
			vertex 29.969135284423828 0 21.08022117614746
			vertex 39.95161056518555 10 21.671947479248047
			vertex 29.928550720214844 0 21.619077682495117
		endloop
	endfacet
	facet normal 0.7051470983055347 -0.7070549513827873 0.053299769946680384
		outer loop
			vertex 39.95161056518555 10 21.671947479248047
			vertex 39.88573455810547 10 22.543476104736328
			vertex 29.928550720214844 0 21.619077682495117
		endloop
	endfacet
	facet normal 0.7028884027481299 -0.7070532928676216 0.0776114316788186
		outer loop
			vertex 29.928550720214844 0 21.619077682495117
			vertex 39.88573455810547 10 22.543476104736328
			vertex 29.869243621826172 0 22.156192779541016
		endloop
	endfacet
	facet normal 0.7028715927214224 -0.7070451953208466 0.07783711145049521
		outer loop
			vertex 39.88573455810547 10 22.543476104736328
			vertex 39.78621292114258 10 23.44215965270996
			vertex 29.869243621826172 0 22.156192779541016
		endloop
	endfacet
	facet normal 0.6994464524577565 -0.7070430676002462 0.10423416283874087
		outer loop
			vertex 29.869243621826172 0 22.156192779541016
			vertex 39.78621292114258 10 23.44215965270996
			vertex 29.789594650268555 0 22.690664291381836
		endloop
	endfacet
	facet normal 0.6994171116204313 -0.7070334236315295 0.10449613313616606
		outer loop
			vertex 39.78621292114258 10 23.44215965270996
			vertex 39.64767837524414 10 24.369403839111328
			vertex 29.789594650268555 0 22.690664291381836
		endloop
	endfacet
	facet normal 0.6945352401493718 -0.7070307189151099 0.1331478978468581
		outer loop
			vertex 29.789594650268555 0 22.690664291381836
			vertex 39.64767837524414 10 24.369403839111328
			vertex 29.687854766845703 0 23.22136688232422
		endloop
	endfacet
	facet normal 0.6944899022379822 -0.7070195088701423 0.13344358271007573
		outer loop
			vertex 39.64767837524414 10 24.369403839111328
			vertex 39.4638786315918 10 25.325965881347656
			vertex 29.687854766845703 0 23.22136688232422
		endloop
	endfacet
	facet normal 0.6878121884527649 -0.707016160740713 0.16444616707993046
		outer loop
			vertex 29.687854766845703 0 23.22136688232422
			vertex 39.4638786315918 10 25.325965881347656
			vertex 29.562204360961914 0 23.746912002563477
		endloop
	endfacet
	facet normal 0.6877457275461638 -0.7070030755084212 0.16478005177700197
		outer loop
			vertex 39.4638786315918 10 25.325965881347656
			vertex 39.227699279785156 10 26.31171226501465
			vertex 29.562204360961914 0 23.746912002563477
		endloop
	endfacet
	facet normal 0.678870499771909 -0.7069989361992514 0.19821036489690774
		outer loop
			vertex 29.562204360961914 0 23.746912002563477
			vertex 39.227699279785156 10 26.31171226501465
			vertex 29.4107608795166 0 24.265605926513672
		endloop
	endfacet
	facet normal 0.6787790138772885 -0.7069840374761185 0.198576486709132
		outer loop
			vertex 39.227699279785156 10 26.31171226501465
			vertex 38.93120193481445 10 27.325206756591797
			vertex 29.4107608795166 0 24.265605926513672
		endloop
	endfacet
	facet normal 0.6672610137382952 -0.7069790031970502 0.2344001462957049
		outer loop
			vertex 29.4107608795166 0 24.265605926513672
			vertex 38.93120193481445 10 27.325206756591797
			vertex 29.23167610168457 0 24.775402069091797
		endloop
	endfacet
	facet normal 0.6671429662739928 -0.706962664252371 0.2347851228343221
		outer loop
			vertex 38.93120193481445 10 27.325206756591797
			vertex 38.56596755981445 10 28.363021850585938
			vertex 29.23167610168457 0 24.775402069091797
		endloop
	endfacet
	facet normal 0.6525058880231676 -0.7069568488749276 0.27285175448204546
		outer loop
			vertex 29.23167610168457 0 24.775402069091797
			vertex 38.56596755981445 10 28.363021850585938
			vertex 29.023223876953125 0 25.273900985717773
		endloop
	endfacet
	facet normal 0.6523600537737472 -0.7069393348504768 0.27324556186968413
		outer loop
			vertex 38.56596755981445 10 28.363021850585938
			vertex 38.123592376708984 10 29.419170379638672
			vertex 29.023223876953125 0 25.273900985717773
		endloop
	endfacet
	facet normal 0.6341416369243328 -0.7069327943867092 0.3132258107811782
		outer loop
			vertex 29.023223876953125 0 25.273900985717773
			vertex 38.123592376708984 10 29.419170379638672
			vertex 28.7839412689209 0 25.75834083557129
		endloop
	endfacet
	facet normal 0.6339767015316619 -0.7069153273208237 0.3135988869781378
		outer loop
			vertex 38.123592376708984 10 29.419170379638672
			vertex 37.596561431884766 10 30.4846248626709
			vertex 28.7839412689209 0 25.75834083557129
		endloop
	endfacet
	facet normal 0.6117793699900906 -0.7069085543527057 0.35497365851214296
		outer loop
			vertex 28.7839412689209 0 25.75834083557129
			vertex 37.596561431884766 10 30.4846248626709
			vertex 28.512781143188477 0 26.225671768188477
		endloop
	endfacet
	facet normal 0.6116056825617251 -0.7068921216638927 0.35530552681843686
		outer loop
			vertex 37.596561431884766 10 30.4846248626709
			vertex 36.97935485839844 10 31.547054290771484
			vertex 28.512781143188477 0 26.225671768188477
		endloop
	endfacet
	facet normal 0.5851805712964421 -0.7068855474258059 0.3973367863886864
		outer loop
			vertex 28.512781143188477 0 26.225671768188477
			vertex 36.97935485839844 10 31.547054290771484
			vertex 28.20927619934082 0 26.67266082763672
		endloop
	endfacet
	facet normal 0.5850241263308814 -0.7068721853166774 0.3975908515502009
		outer loop
			vertex 36.97935485839844 10 31.547054290771484
			vertex 36.26980972290039 10 32.591094970703125
			vertex 28.20927619934082 0 26.67266082763672
		endloop
	endfacet
	facet normal 0.5543472724715222 -0.7068667082358663 0.4393615348334156
		outer loop
			vertex 28.20927619934082 0 26.67266082763672
			vertex 36.26980972290039 10 32.591094970703125
			vertex 27.873685836791992 0 27.096078872680664
		endloop
	endfacet
	facet normal 0.5542300333797892 -0.7068575911067996 0.43952407897011797
		outer loop
			vertex 36.26980972290039 10 32.591094970703125
			vertex 35.470218658447266 10 33.599361419677734
			vertex 27.873685836791992 0 27.096078872680664
		endloop
	endfacet
	facet normal 0.5195713936605795 -0.7068538477661278 0.48000333830904063
		outer loop
			vertex 27.873685836791992 0 27.096078872680664
			vertex 35.470218658447266 10 33.599361419677734
			vertex 27.507061004638672 0 27.4929256439209
		endloop
	endfacet
	facet normal 0.5195264081424079 -0.7068506405656234 0.4800567499521449
		outer loop
			vertex 35.470218658447266 10 33.599361419677734
			vertex 34.58807373046875 10 34.55403518676758
			vertex 27.507061004638672 0 27.4929256439209
		endloop
	endfacet
	facet normal 0.48146730535844 -0.7068493194653582 0.5182212591569769
		outer loop
			vertex 27.507061004638672 0 27.4929256439209
			vertex 34.58807373046875 10 34.55403518676758
			vertex 27.111248016357422 0 27.860666275024414
		endloop
	endfacet
	facet normal 0.4815123135922997 -0.7068522782891699 0.5181754032529922
		outer loop
			vertex 34.58807373046875 10 34.55403518676758
			vertex 33.63572311401367 10 35.439002990722656
			vertex 27.111248016357422 0 27.860666275024414
		endloop
	endfacet
	facet normal 0.44090571679068513 -0.7068535004308174 0.5531367623201269
		outer loop
			vertex 27.111248016357422 0 27.860666275024414
			vertex 33.63572311401367 10 35.439002990722656
			vertex 26.688762664794922 0 28.197429656982422
		endloop
	endfacet
	facet normal 0.4410516493209809 -0.7068623910381993 0.5530090440191755
		outer loop
			vertex 33.63572311401367 10 35.439002990722656
			vertex 32.629173278808594 10 36.24177551269531
			vertex 26.688762664794922 0 28.197429656982422
		endloop
	endfacet
	facet normal 0.39891637130894364 -0.7068659640553979 0.5841286138871626
		outer loop
			vertex 26.688762664794922 0 28.197429656982422
			vertex 32.629173278808594 10 36.24177551269531
			vertex 26.242589950561523 0 28.502132415771484
		endloop
	endfacet
	facet normal 0.39915395220339495 -0.7068794406300094 0.5839499797542724
		outer loop
			vertex 32.629173278808594 10 36.24177551269531
			vertex 31.586130142211914 10 36.95473861694336
			vertex 26.242589950561523 0 28.502132415771484
		endloop
	endfacet
	facet normal 0.3565465446321141 -0.7068847082506252 0.6108916194811717
		outer loop
			vertex 26.242589950561523 0 28.502132415771484
			vertex 31.586130142211914 10 36.95473861694336
			vertex 25.77595329284668 0 28.774484634399414
		endloop
	endfacet
	facet normal 0.35685941288361406 -0.7069013083132638 0.6106896918577867
		outer loop
			vertex 31.586130142211914 10 36.95473861694336
			vertex 30.52405548095703 10 37.57536697387695
			vertex 25.77595329284668 0 28.774484634399414
		endloop
	endfacet
	facet normal 0.31475981765074096 -0.706907620070759 0.6334097203851294
		outer loop
			vertex 25.77595329284668 0 28.774484634399414
			vertex 30.52405548095703 10 37.57536697387695
			vertex 25.292089462280273 0 29.014930725097656
		endloop
	endfacet
	facet normal 0.3151168528526126 -0.7069254205428296 0.6332123015534432
		outer loop
			vertex 30.52405548095703 10 37.57536697387695
			vertex 29.458457946777344 10 38.10565948486328
			vertex 25.292089462280273 0 29.014930725097656
		endloop
	endfacet
	facet normal 0.2743203563906471 -0.7069319153084392 0.6519168729125286
		outer loop
			vertex 25.292089462280273 0 29.014930725097656
			vertex 29.458457946777344 10 38.10565948486328
			vertex 24.79405975341797 0 29.224496841430664
		endloop
	endfacet
	facet normal 0.2747015832510861 -0.7069498614921378 0.6517368590893059
		outer loop
			vertex 29.458457946777344 10 38.10565948486328
			vertex 28.40181541442871 10 38.551025390625
			vertex 24.79405975341797 0 29.224496841430664
		endloop
	endfacet
	facet normal 0.23579506942010894 -0.7069560956447414 0.6667936442917775
		outer loop
			vertex 24.79405975341797 0 29.224496841430664
			vertex 28.40181541442871 10 38.551025390625
			vertex 24.284635543823242 0 29.40464210510254
		endloop
	endfacet
	facet normal 0.23616850320895322 -0.7069727756252515 0.6666437824031441
		outer loop
			vertex 28.40181541442871 10 38.551025390625
			vertex 27.363195419311523 10 38.91897201538086
			vertex 24.284635543823242 0 29.40464210510254
		endloop
	endfacet
	facet normal 0.19950783439684439 -0.7069782618230759 0.6785118726477112
		outer loop
			vertex 24.284635543823242 0 29.40464210510254
			vertex 27.363195419311523 10 38.91897201538086
			vertex 23.766233444213867 0 29.557071685791016
		endloop
	endfacet
	facet normal 0.1998660499574204 -0.7069935200892814 0.6783905399002736
		outer loop
			vertex 27.363195419311523 10 38.91897201538086
			vertex 26.348711013793945 10 39.217857360839844
			vertex 23.766233444213867 0 29.557071685791016
		endloop
	endfacet
	facet normal 0.1656578919591038 -0.7069982332087822 0.6875397887186795
		outer loop
			vertex 23.766233444213867 0 29.557071685791016
			vertex 26.348711013793945 10 39.217857360839844
			vertex 23.240907669067383 0 29.683645248413086
		endloop
	endfacet
	facet normal 0.16598852259404978 -0.7070117248862602 0.6874461660671327
		outer loop
			vertex 26.348711013793945 10 39.217857360839844
			vertex 25.361909866333008 10 39.45612716674805
			vertex 23.240907669067383 0 29.683645248413086
		endloop
	endfacet
	facet normal 0.13426169879033273 -0.707015658636483 0.6943361251445545
		outer loop
			vertex 23.240907669067383 0 29.683645248413086
			vertex 25.361909866333008 10 39.45612716674805
			vertex 22.710369110107422 0 29.78623390197754
		endloop
	endfacet
	facet normal 0.13455323378831827 -0.7070271099662161 0.6942680268094783
		outer loop
			vertex 25.361909866333008 10 39.45612716674805
			vertex 24.40424919128418 10 39.641727447509766
			vertex 22.710369110107422 0 29.78623390197754
		endloop
	endfacet
	facet normal 0.10526737192382785 -0.7070302678762614 0.6993046408505185
		outer loop
			vertex 22.710369110107422 0 29.78623390197754
			vertex 24.40424919128418 10 39.641727447509766
			vertex 22.17601776123047 0 29.866670608520508
		endloop
	endfacet
	facet normal 0.10552633853195088 -0.7070401000688936 0.6992556676714242
		outer loop
			vertex 24.40424919128418 10 39.641727447509766
			vertex 23.475955963134766 10 39.78181838989258
			vertex 22.17601776123047 0 29.866670608520508
		endloop
	endfacet
	facet normal 0.0785585782702874 -0.7070426499430231 0.7027938822597269
		outer loop
			vertex 22.17601776123047 0 29.866670608520508
			vertex 23.475955963134766 10 39.78181838989258
			vertex 21.63898277282715 0 29.926700592041016
		endloop
	endfacet
	facet normal 0.07878336698421229 -0.7070509322152956 0.7027603861488727
		outer loop
			vertex 23.475955963134766 10 39.78181838989258
			vertex 22.576229095458984 10 39.88268280029297
			vertex 21.63898277282715 0 29.926700592041016
		endloop
	endfacet
	facet normal 0.05397868283150376 -0.7070529292823642 0.7050974804897576
		outer loop
			vertex 21.63898277282715 0 29.926700592041016
			vertex 22.576229095458984 10 39.88268280029297
			vertex 21.100175857543945 0 29.96794891357422
		endloop
	endfacet
	facet normal 0.054171504956777194 -0.707059848994135 0.7050757533705928
		outer loop
			vertex 22.576229095458984 10 39.88268280029297
			vertex 21.703718185424805 10 39.9497184753418
			vertex 21.100175857543945 0 29.96794891357422
		endloop
	endfacet
	facet normal 0.03136920415758504 -0.707061406633746 0.7064560427086942
		outer loop
			vertex 21.100175857543945 0 29.96794891357422
			vertex 21.703718185424805 10 39.9497184753418
			vertex 20.560319900512695 0 29.991920471191406
		endloop
	endfacet
	facet normal 0.03153696647810584 -0.7070672885922652 0.70644268638591
		outer loop
			vertex 21.703718185424805 10 39.9497184753418
			vertex 20.856813430786133 10 39.987525939941406
			vertex 20.560319900512695 0 29.991920471191406
		endloop
	endfacet
	facet normal 0.010560267029156054 -0.7070685434065578 0.7070661607552731
		outer loop
			vertex 20.560319900512695 0 29.991920471191406
			vertex 20.856813430786133 10 39.987525939941406
			vertex 20.019990921020508 0 29.999990463256836
		endloop
	endfacet
	facet normal 0.010563551470208309 -0.7070686564011409 0.7070659986984396
		outer loop
			vertex 20.856813430786133 10 39.987525939941406
			vertex 20.022634506225586 10 39.9999885559082
			vertex 20.019990921020508 0 29.999990463256836
		endloop
	endfacet
	facet normal 2.2463352578323739e-7 -0.7071067137812543 0.7071068485917986
		outer loop
			vertex 20.019990921020508 0 29.999990463256836
			vertex 20.022634506225586 10 39.9999885559082
			vertex -10 0 30
		endloop
	endfacet
	facet normal 2.6953649532531847e-7 -0.7071067811865605 0.7071067811864833
		outer loop
			vertex 20.022634506225586 10 39.9999885559082
			vertex -9.99999713897705 10 40
			vertex -10 0 30
		endloop
	endfacet
	facet normal 0.07616477596258668 0.7050528089804936 -0.7050528089804938
		outer loop
			vertex -1.7763568394002505e-15 10 -10
			vertex -3.552713678800501e-15 20 -1.2246467996456087e-15
			vertex 15.547001838684082 10 -8.320503234863281
		endloop
	endfacet
	facet normal 1.3968324425619769e-16 0.6396021623071055 -0.7687061037692333
		outer loop
			vertex -3.552713678800501e-15 20 -1.2246467996456087e-15
			vertex 10 20 5.924747708906759e-16
			vertex 15.547001838684082 10 -8.320503234863281
		endloop
	endfacet
	facet normal 0.5013481987868835 0.7005865599344306 -0.5077681120476041
		outer loop
			vertex 15.547001838684082 10 -8.320503234863281
			vertex 10 20 5.924747708906759e-16
			vertex 37.165985107421875 10 13.025142669677734
		endloop
	endfacet
	facet normal 0.5000228610370945 0.7070744493195587 -0.5000228610370945
		outer loop
			vertex 10 20 5.924747708906759e-16
			vertex 30 20 20
			vertex 37.165985107421875 10 13.025142669677734
		endloop
	endfacet
	facet normal 0.6950838389083243 0.6735066922909679 -0.2514899447845703
		outer loop
			vertex 37.165985107421875 10 13.025142669677734
			vertex 30 20 20
			vertex 39.9884147644043 10 20.825952529907227
		endloop
	endfacet
	facet normal 0.7070766564273776 0.7070686962041826 0.009821445087036147
		outer loop
			vertex 30 20 20
			vertex 29.992494583129883 20 20.54033851623535
			vertex 39.9884147644043 10 20.825952529907227
		endloop
	endfacet
	facet normal 0.7064778706680293 0.7070674649627703 0.030734642465612944
		outer loop
			vertex 39.9884147644043 10 20.825952529907227
			vertex 29.992494583129883 20 20.54033851623535
			vertex 39.95161056518555 10 21.671947479248047
		endloop
	endfacet
	facet normal 0.7064909434680846 0.7070616268702761 0.030567999691414476
		outer loop
			vertex 29.992494583129883 20 20.54033851623535
			vertex 29.969135284423828 20 21.08022117614746
			vertex 39.95161056518555 10 21.671947479248047
		endloop
	endfacet
	facet normal 0.7051419709439046 0.7070600940872017 0.05329938238613312
		outer loop
			vertex 39.95161056518555 10 21.671947479248047
			vertex 29.969135284423828 20 21.08022117614746
			vertex 39.88573455810547 10 22.543476104736328
		endloop
	endfacet
	facet normal 0.7051630547184925 0.707053308532481 0.05311012288967734
		outer loop
			vertex 29.969135284423828 20 21.08022117614746
			vertex 29.928550720214844 20 21.619077682495117
			vertex 39.88573455810547 10 22.543476104736328
		endloop
	endfacet
	facet normal 0.7028655192278478 0.7070513069543234 0.07783643886221428
		outer loop
			vertex 39.88573455810547 10 22.543476104736328
			vertex 29.928550720214844 20 21.619077682495117
			vertex 39.78621292114258 10 23.44215965270996
		endloop
	endfacet
	facet normal 0.7028985654402616 0.7070430667161126 0.0776125538215129
		outer loop
			vertex 29.928550720214844 20 21.619077682495117
			vertex 29.869243621826172 20 22.156192779541016
			vertex 39.78621292114258 10 23.44215965270996
		endloop
	endfacet
	facet normal 0.699410072157864 0.7070405426322097 0.10449508140808357
		outer loop
			vertex 39.78621292114258 10 23.44215965270996
			vertex 29.869243621826172 20 22.156192779541016
			vertex 39.64767837524414 10 24.369403839111328
		endloop
	endfacet
	facet normal 0.6994586664431736 0.7070307162937239 0.10423598301316653
		outer loop
			vertex 29.869243621826172 20 22.156192779541016
			vertex 29.789594650268555 20 22.690664291381836
			vertex 39.64767837524414 10 24.369403839111328
		endloop
	endfacet
	facet normal 0.6944819707041684 0.7070275873951386 0.13344205869614106
		outer loop
			vertex 39.64767837524414 10 24.369403839111328
			vertex 29.789594650268555 20 22.690664291381836
			vertex 39.4638786315918 10 25.325965881347656
		endloop
	endfacet
	facet normal 0.6945495386220626 0.70701615663283 0.13315063897714371
		outer loop
			vertex 29.789594650268555 20 22.690664291381836
			vertex 29.687854766845703 20 23.22136688232422
			vertex 39.4638786315918 10 25.325965881347656
		endloop
	endfacet
	facet normal 0.6877367894584878 0.70701226914063 0.16477791026089939
		outer loop
			vertex 39.4638786315918 10 25.325965881347656
			vertex 29.687854766845703 20 23.22136688232422
			vertex 39.227699279785156 10 26.31171226501465
		endloop
	endfacet
	facet normal 0.6878289571713809 0.7069989145748697 0.1644501762434049
		outer loop
			vertex 29.687854766845703 20 23.22136688232422
			vertex 29.562204360961914 20 23.746912002563477
			vertex 39.227699279785156 10 26.31171226501465
		endloop
	endfacet
	facet normal 0.67876923578712 0.7069942287976702 0.19857362613337362
		outer loop
			vertex 39.227699279785156 10 26.31171226501465
			vertex 29.562204360961914 20 23.746912002563477
			vertex 38.93120193481445 10 27.325206756591797
		endloop
	endfacet
	facet normal 0.6788896114894231 0.7069790198974718 0.1982159449604155
		outer loop
			vertex 29.562204360961914 20 23.746912002563477
			vertex 29.4107608795166 20 24.265605926513672
			vertex 38.93120193481445 10 27.325206756591797
		endloop
	endfacet
	facet normal 0.6671327127840048 0.7069735384350146 0.23478151436203354
		outer loop
			vertex 38.93120193481445 10 27.325206756591797
			vertex 29.4107608795166 20 24.265605926513672
			vertex 38.56596755981445 10 28.363021850585938
		endloop
	endfacet
	facet normal 0.667281895589185 0.7069568616867958 0.23440748181928975
		outer loop
			vertex 29.4107608795166 20 24.265605926513672
			vertex 29.23167610168457 20 24.775402069091797
			vertex 38.56596755981445 10 28.363021850585938
		endloop
	endfacet
	facet normal 0.6523495983751312 0.7069506755473431 0.27324118255299723
		outer loop
			vertex 38.56596755981445 10 28.363021850585938
			vertex 29.23167610168457 20 24.775402069091797
			vertex 38.123592376708984 10 29.419170379638672
		endloop
	endfacet
	facet normal 0.6525280504405724 0.7069328158374099 0.272861021914851
		outer loop
			vertex 29.23167610168457 20 24.775402069091797
			vertex 29.023223876953125 20 25.273900985717773
			vertex 38.123592376708984 10 29.419170379638672
		endloop
	endfacet
	facet normal 0.6339668329905819 0.7069263429822326 0.31359400546831057
		outer loop
			vertex 38.123592376708984 10 29.419170379638672
			vertex 29.023223876953125 20 25.273900985717773
			vertex 37.596561431884766 10 30.4846248626709
		endloop
	endfacet
	facet normal 0.6341633537063567 0.706908560135796 0.313236537496254
		outer loop
			vertex 29.023223876953125 20 25.273900985717773
			vertex 28.7839412689209 20 25.75834083557129
			vertex 37.596561431884766 10 30.4846248626709
		endloop
	endfacet
	facet normal 0.6115969411816978 0.70690223705555 0.35530044861081994
		outer loop
			vertex 37.596561431884766 10 30.4846248626709
			vertex 28.7839412689209 20 25.75834083557129
			vertex 36.97935485839844 10 31.547054290771484
		endloop
	endfacet
	facet normal 0.6117992548457296 0.7068855509596889 0.35498519633166
		outer loop
			vertex 28.7839412689209 20 25.75834083557129
			vertex 28.512781143188477 20 26.225671768188477
			vertex 36.97935485839844 10 31.547054290771484
		endloop
	endfacet
	facet normal 0.5850174665092667 0.7068802428296121 0.39758632543917777
		outer loop
			vertex 36.97935485839844 10 31.547054290771484
			vertex 28.512781143188477 20 26.225671768188477
			vertex 36.26980972290039 10 32.591094970703125
		endloop
	endfacet
	facet normal 0.5851961356760341 0.7068667219481 0.3973473545805789
		outer loop
			vertex 28.512781143188477 20 26.225671768188477
			vertex 28.20927619934082 20 26.67266082763672
			vertex 36.26980972290039 10 32.591094970703125
		endloop
	endfacet
	facet normal 0.5542257957711003 0.7068630032774924 0.4395207183960894
		outer loop
			vertex 36.26980972290039 10 32.591094970703125
			vertex 28.20927619934082 20 26.67266082763672
			vertex 35.470218658447266 10 33.599361419677734
		endloop
	endfacet
	facet normal 0.5543573678296463 0.7068538175817932 0.4393695361572434
		outer loop
			vertex 28.20927619934082 20 26.67266082763672
			vertex 27.873685836791992 20 27.096078872680664
			vertex 35.470218658447266 10 33.599361419677734
		endloop
	endfacet
	facet normal 0.5195250240985486 0.7068525263753871 0.48005547105739294
		outer loop
			vertex 35.470218658447266 10 33.599361419677734
			vertex 27.873685836791992 20 27.096078872680664
			vertex 34.58807373046875 10 34.55403518676758
		endloop
	endfacet
	facet normal 0.5195747237901834 0.7068493107575865 0.48000641483201006
		outer loop
			vertex 27.873685836791992 20 27.096078872680664
			vertex 27.507061004638672 20 27.4929256439209
			vertex 34.58807373046875 10 34.55403518676758
		endloop
	endfacet
	facet normal 0.4815134938848457 0.7068505431387512 0.5181766734148316
		outer loop
			vertex 34.58807373046875 10 34.55403518676758
			vertex 27.507061004638672 20 27.4929256439209
			vertex 33.63572311401367 10 35.439002990722656
		endloop
	endfacet
	facet normal 0.4814644655392029 0.7068534946970279 0.5182182025533728
		outer loop
			vertex 27.507061004638672 20 27.4929256439209
			vertex 27.111248016357422 20 27.860666275024414
			vertex 33.63572311401367 10 35.439002990722656
		endloop
	endfacet
	facet normal 0.4410549124049652 0.7068571541031033 0.5530131354106429
		outer loop
			vertex 33.63572311401367 10 35.439002990722656
			vertex 27.111248016357422 20 27.860666275024414
			vertex 32.629173278808594 10 36.24177551269531
		endloop
	endfacet
	facet normal 0.44089794363157714 0.7068659798884847 0.5531270105298954
		outer loop
			vertex 27.111248016357422 20 27.860666275024414
			vertex 26.688762664794922 20 28.197429656982422
			vertex 32.629173278808594 10 36.24177551269531
		endloop
	endfacet
	facet normal 0.3991584788896387 0.7068714137149797 0.5839566021572972
		outer loop
			vertex 32.629173278808594 10 36.24177551269531
			vertex 26.688762664794922 20 28.197429656982422
			vertex 31.586130142211914 10 36.95473861694336
		endloop
	endfacet
	facet normal 0.3989057924841375 0.7068847344168442 0.584113123436745
		outer loop
			vertex 26.688762664794922 20 28.197429656982422
			vertex 26.242589950561523 20 28.502132415771484
			vertex 31.586130142211914 10 36.95473861694336
		endloop
	endfacet
	facet normal 0.3568644832125467 0.7068912526977824 0.6106983686573938
		outer loop
			vertex 31.586130142211914 10 36.95473861694336
			vertex 26.242589950561523 20 28.502132415771484
			vertex 30.52405548095703 10 37.57536697387695
		endloop
	endfacet
	facet normal 0.35653501130295495 0.7069076020817477 0.6108718587676432
		outer loop
			vertex 26.242589950561523 20 28.502132415771484
			vertex 25.77595329284668 20 28.774484634399414
			vertex 30.52405548095703 10 37.57536697387695
		endloop
	endfacet
	facet normal 0.3151217587136048 0.7069144033875521 0.6332221596473594
		outer loop
			vertex 30.52405548095703 10 37.57536697387695
			vertex 25.77595329284668 20 28.774484634399414
			vertex 29.458457946777344 10 38.10565948486328
		endloop
	endfacet
	facet normal 0.3147490230503648 0.7069318897626762 0.6333879977749914
		outer loop
			vertex 25.77595329284668 20 28.774484634399414
			vertex 25.292089462280273 20 29.014930725097656
			vertex 29.458457946777344 10 38.10565948486328
		endloop
	endfacet
	facet normal 0.27470600303369774 0.7069384768123705 0.6517473451418546
		outer loop
			vertex 29.458457946777344 10 38.10565948486328
			vertex 25.292089462280273 20 29.014930725097656
			vertex 28.40181541442871 10 38.551025390625
		endloop
	endfacet
	facet normal 0.2743109900783105 0.7069560756405616 0.6518946140574822
		outer loop
			vertex 25.292089462280273 20 29.014930725097656
			vertex 24.79405975341797 20 29.224496841430664
			vertex 28.40181541442871 10 38.551025390625
		endloop
	endfacet
	facet normal 0.23617213026313877 0.7069619096023795 0.6666540206571382
		outer loop
			vertex 28.40181541442871 10 38.551025390625
			vertex 24.79405975341797 20 29.224496841430664
			vertex 27.363195419311523 10 38.91897201538086
		endloop
	endfacet
	facet normal 0.2357876849195167 0.7069782538919293 0.6667727620143266
		outer loop
			vertex 24.79405975341797 20 29.224496841430664
			vertex 24.284635543823242 20 29.40464210510254
			vertex 27.363195419311523 10 38.91897201538086
		endloop
	endfacet
	facet normal 0.19986893532680788 0.7069833068777637 0.6784003334960192
		outer loop
			vertex 27.363195419311523 10 38.91897201538086
			vertex 24.284635543823242 20 29.40464210510254
			vertex 26.348711013793945 10 39.217857360839844
		endloop
	endfacet
	facet normal 0.19950219724154183 0.7069982516733015 0.6784927010857907
		outer loop
			vertex 24.284635543823242 20 29.40464210510254
			vertex 23.766233444213867 20 29.557071685791016
			vertex 26.348711013793945 10 39.217857360839844
		endloop
	endfacet
	facet normal 0.16599070001606822 0.7070024452622811 0.6874551839220728
		outer loop
			vertex 26.348711013793945 10 39.217857360839844
			vertex 23.766233444213867 20 29.557071685791016
			vertex 25.361909866333008 10 39.45612716674805
		endloop
	endfacet
	facet normal 0.16565380951472408 0.7070156666219272 0.6875228451072819
		outer loop
			vertex 23.766233444213867 20 29.557071685791016
			vertex 23.240907669067383 20 29.683645248413086
			vertex 25.361909866333008 10 39.45612716674805
		endloop
	endfacet
	facet normal 0.13455477168205032 0.7070190251725798 0.6942759620364272
		outer loop
			vertex 25.361909866333008 10 39.45612716674805
			vertex 23.240907669067383 20 29.683645248413086
			vertex 24.40424919128418 10 39.641727447509766
		endloop
	endfacet
	facet normal 0.13425892861263186 0.7070302534789163 0.6943217991344702
		outer loop
			vertex 23.240907669067383 20 29.683645248413086
			vertex 22.710369110107422 20 29.78623390197754
			vertex 24.40424919128418 10 39.641727447509766
		endloop
	endfacet
	facet normal 0.10552740039411079 0.7070329826995682 0.699262703953967
		outer loop
			vertex 24.40424919128418 10 39.641727447509766
			vertex 22.710369110107422 20 29.78623390197754
			vertex 23.475955963134766 10 39.78181838989258
		endloop
	endfacet
	facet normal 0.10526553167001977 0.7070426331097154 0.6992924158086578
		outer loop
			vertex 22.710369110107422 20 29.78623390197754
			vertex 22.17601776123047 20 29.866670608520508
			vertex 23.475955963134766 10 39.78181838989258
		endloop
	endfacet
	facet normal 0.0787840506415431 0.7070447946573248 0.7027664844829271
		outer loop
			vertex 23.475955963134766 10 39.78181838989258
			vertex 22.17601776123047 20 29.866670608520508
			vertex 22.576229095458984 10 39.88268280029297
		endloop
	endfacet
	facet normal 0.07855743613846111 0.7070529329341716 0.7027836646198725
		outer loop
			vertex 22.17601776123047 20 29.866670608520508
			vertex 21.63898277282715 20 29.926700592041016
			vertex 22.576229095458984 10 39.88268280029297
		endloop
	endfacet
	facet normal 0.0541719063305101 0.7070546087353183 0.7050809774988008
		outer loop
			vertex 22.576229095458984 10 39.88268280029297
			vertex 21.63898277282715 20 29.926700592041016
			vertex 21.703718185424805 10 39.9497184753418
		endloop
	endfacet
	facet normal 0.05397803517765038 0.7070614152169641 0.7050890205000673
		outer loop
			vertex 21.63898277282715 20 29.926700592041016
			vertex 21.100175857543945 20 29.96794891357422
			vertex 21.703718185424805 10 39.9497184753418
		endloop
	endfacet
	facet normal 0.03153716914694471 0.7070627436578542 0.7064472262619657
		outer loop
			vertex 21.703718185424805 10 39.9497184753418
			vertex 21.100175857543945 20 29.96794891357422
			vertex 20.856813430786133 10 39.987525939941406
		endloop
	endfacet
	facet normal 0.03136888790924766 0.7070685366246237 0.7064489205787284
		outer loop
			vertex 21.100175857543945 20 29.96794891357422
			vertex 20.560319900512695 20 29.991920471191406
			vertex 20.856813430786133 10 39.987525939941406
		endloop
	endfacet
	facet normal 0.010563552796720423 0.7070685675922249 0.70706608748786
		outer loop
			vertex 20.856813430786133 10 39.987525939941406
			vertex 20.560319900512695 20 29.991920471191406
			vertex 20.022634506225586 10 39.9999885559082
		endloop
	endfacet
	facet normal 0.010560264981876817 0.7070686805129022 0.7070660236790168
		outer loop
			vertex 20.560319900512695 20 29.991920471191406
			vertex 20.019990921020508 20 29.999990463256836
			vertex 20.022634506225586 10 39.9999885559082
		endloop
	endfacet
	facet normal 2.695365210167573e-7 0.7071067137871818 0.7071068485858556
		outer loop
			vertex 20.022634506225586 10 39.9999885559082
			vertex 20.019990921020508 20 29.999990463256836
			vertex -9.99999713897705 10 40
		endloop
	endfacet
	facet normal 2.246335043699383e-7 0.7071067811865618 0.7071067811864975
		outer loop
			vertex 20.019990921020508 20 29.999990463256836
			vertex -10 20 30
			vertex -9.99999713897705 10 40
		endloop
	endfacet
	facet normal -1.8171215705362839e-16 6.12323399822804e-17 1
		outer loop
			vertex -3.552713678800501e-15 20 -1.2246467996456087e-15
			vertex 0 0 0
			vertex 10 20 5.924747708906759e-16
		endloop
	endfacet
	facet normal 0 -2.9623738544533794e-17 1
		outer loop
			vertex 0 0 0
			vertex 10 0 0
			vertex 10 20 5.924747708906759e-16
		endloop
	endfacet
	facet normal -0.7071067811865476 -2.0947146408937152e-17 0.7071067811865476
		outer loop
			vertex 10 20 5.924747708906759e-16
			vertex 10 0 0
			vertex 30 20 20
		endloop
	endfacet
	facet normal -0.7071067811865476 0 0.7071067811865476
		outer loop
			vertex 10 0 0
			vertex 30 0 20
			vertex 30 20 20
		endloop
	endfacet
	facet normal -0.9999035449540288 0 -0.013888872825640249
		outer loop
			vertex 30 20 20
			vertex 30 0 20
			vertex 29.992494583129883 20 20.54033851623535
		endloop
	endfacet
	facet normal -0.9999035449540288 0 -0.013888872825640249
		outer loop
			vertex 30 0 20
			vertex 29.992494583129883 0 20.54033851623535
			vertex 29.992494583129883 20 20.54033851623535
		endloop
	endfacet
	facet normal -0.9990652798628258 0 -0.0432269195364843
		outer loop
			vertex 29.992494583129883 20 20.54033851623535
			vertex 29.992494583129883 0 20.54033851623535
			vertex 29.969135284423828 20 21.08022117614746
		endloop
	endfacet
	facet normal -0.9990652798628258 0 -0.0432269195364843
		outer loop
			vertex 29.992494583129883 0 20.54033851623535
			vertex 29.969135284423828 0 21.08022117614746
			vertex 29.969135284423828 20 21.08022117614746
		endloop
	endfacet
	facet normal -0.997175753191297 0 -0.07510337707034086
		outer loop
			vertex 29.969135284423828 20 21.08022117614746
			vertex 29.969135284423828 0 21.08022117614746
			vertex 29.928550720214844 20 21.619077682495117
		endloop
	endfacet
	facet normal -0.997175753191297 0 -0.07510337707034086
		outer loop
			vertex 29.969135284423828 0 21.08022117614746
			vertex 29.928550720214844 0 21.619077682495117
			vertex 29.928550720214844 20 21.619077682495117
		endloop
	endfacet
	facet normal -0.9939591307370658 0 -0.10975083792125198
		outer loop
			vertex 29.928550720214844 20 21.619077682495117
			vertex 29.928550720214844 0 21.619077682495117
			vertex 29.869243621826172 20 22.156192779541016
		endloop
	endfacet
	facet normal -0.9939591307370658 0 -0.10975083792125198
		outer loop
			vertex 29.928550720214844 0 21.619077682495117
			vertex 29.869243621826172 0 22.156192779541016
			vertex 29.869243621826172 20 22.156192779541016
		endloop
	endfacet
	facet normal -0.9890775467945658 0 -0.14739608687764938
		outer loop
			vertex 29.869243621826172 20 22.156192779541016
			vertex 29.869243621826172 0 22.156192779541016
			vertex 29.789594650268555 20 22.690664291381836
		endloop
	endfacet
	facet normal -0.9890775467945658 0 -0.14739608687764938
		outer loop
			vertex 29.869243621826172 0 22.156192779541016
			vertex 29.789594650268555 0 22.690664291381836
			vertex 29.789594650268555 20 22.690664291381836
		endloop
	endfacet
	facet normal -0.9821155230349294 0 -0.18827931223006736
		outer loop
			vertex 29.789594650268555 20 22.690664291381836
			vertex 29.789594650268555 0 22.690664291381836
			vertex 29.687854766845703 20 23.22136688232422
		endloop
	endfacet
	facet normal -0.9821155230349294 0 -0.18827931223006736
		outer loop
			vertex 29.789594650268555 0 22.690664291381836
			vertex 29.687854766845703 0 23.22136688232422
			vertex 29.687854766845703 20 23.22136688232422
		endloop
	endfacet
	facet normal -0.972588697524837 0 -0.23253220303205627
		outer loop
			vertex 29.687854766845703 20 23.22136688232422
			vertex 29.687854766845703 0 23.22136688232422
			vertex 29.562204360961914 20 23.746912002563477
		endloop
	endfacet
	facet normal -0.972588697524837 0 -0.23253220303205627
		outer loop
			vertex 29.687854766845703 0 23.22136688232422
			vertex 29.562204360961914 0 23.746912002563477
			vertex 29.562204360961914 20 23.746912002563477
		endloop
	endfacet
	facet normal -0.959921486962404 0 -0.28026904728829316
		outer loop
			vertex 29.562204360961914 20 23.746912002563477
			vertex 29.562204360961914 0 23.746912002563477
			vertex 29.4107608795166 20 24.265605926513672
		endloop
	endfacet
	facet normal -0.959921486962404 0 -0.28026904728829316
		outer loop
			vertex 29.562204360961914 0 23.746912002563477
			vertex 29.4107608795166 0 24.265605926513672
			vertex 29.4107608795166 20 24.265605926513672
		endloop
	endfacet
	facet normal -0.9434791143363183 0 -0.33143198519629447
		outer loop
			vertex 29.4107608795166 20 24.265605926513672
			vertex 29.4107608795166 0 24.265605926513672
			vertex 29.23167610168457 20 24.775402069091797
		endloop
	endfacet
	facet normal -0.9434791143363183 0 -0.33143198519629447
		outer loop
			vertex 29.4107608795166 0 24.265605926513672
			vertex 29.23167610168457 0 24.775402069091797
			vertex 29.23167610168457 20 24.775402069091797
		endloop
	endfacet
	facet normal -0.9225870958787217 0 -0.38578886779956006
		outer loop
			vertex 29.23167610168457 20 24.775402069091797
			vertex 29.23167610168457 0 24.775402069091797
			vertex 29.023223876953125 20 25.273900985717773
		endloop
	endfacet
	facet normal -0.9225870958787217 0 -0.38578886779956006
		outer loop
			vertex 29.23167610168457 0 24.775402069091797
			vertex 29.023223876953125 0 25.273900985717773
			vertex 29.023223876953125 20 25.273900985717773
		endloop
	endfacet
	facet normal -0.896591147393357 0 -0.4428592489898609
		outer loop
			vertex 29.023223876953125 20 25.273900985717773
			vertex 29.023223876953125 0 25.273900985717773
			vertex 28.7839412689209 20 25.75834083557129
		endloop
	endfacet
	facet normal -0.896591147393357 0 -0.4428592489898609
		outer loop
			vertex 29.023223876953125 0 25.273900985717773
			vertex 28.7839412689209 0 25.75834083557129
			vertex 28.7839412689209 20 25.75834083557129
		endloop
	endfacet
	facet normal -0.8649442759549687 0 -0.5018679104034597
		outer loop
			vertex 28.7839412689209 20 25.75834083557129
			vertex 28.7839412689209 0 25.75834083557129
			vertex 28.512781143188477 20 26.225671768188477
		endloop
	endfacet
	facet normal -0.8649442759549687 0 -0.5018679104034597
		outer loop
			vertex 28.7839412689209 0 25.75834083557129
			vertex 28.512781143188477 0 26.225671768188477
			vertex 28.512781143188477 20 26.225671768188477
		endloop
	endfacet
	facet normal -0.8273115388859978 0 -0.5617433734598765
		outer loop
			vertex 28.512781143188477 20 26.225671768188477
			vertex 28.512781143188477 0 26.225671768188477
			vertex 28.20927619934082 20 26.67266082763672
		endloop
	endfacet
	facet normal -0.8273115388859978 0 -0.5617433734598765
		outer loop
			vertex 28.512781143188477 0 26.225671768188477
			vertex 28.20927619934082 0 26.67266082763672
			vertex 28.20927619934082 20 26.67266082763672
		endloop
	endfacet
	facet normal -0.7836994440357739 0 -0.6211402268554335
		outer loop
			vertex 28.20927619934082 20 26.67266082763672
			vertex 28.20927619934082 0 26.67266082763672
			vertex 27.873685836791992 20 27.096078872680664
		endloop
	endfacet
	facet normal -0.7836994440357739 0 -0.6211402268554335
		outer loop
			vertex 28.20927619934082 0 26.67266082763672
			vertex 27.873685836791992 0 27.096078872680664
			vertex 27.873685836791992 20 27.096078872680664
		endloop
	endfacet
	facet normal -0.7345222654943483 0 -0.6785845868372271
		outer loop
			vertex 27.873685836791992 20 27.096078872680664
			vertex 27.873685836791992 0 27.096078872680664
			vertex 27.507061004638672 20 27.4929256439209
		endloop
	endfacet
	facet normal -0.7345222654943483 0 -0.6785845868372271
		outer loop
			vertex 27.873685836791992 0 27.096078872680664
			vertex 27.507061004638672 0 27.4929256439209
			vertex 27.507061004638672 20 27.4929256439209
		endloop
	endfacet
	facet normal -0.6806498546808749 0 -0.7326088829129115
		outer loop
			vertex 27.507061004638672 20 27.4929256439209
			vertex 27.507061004638672 0 27.4929256439209
			vertex 27.111248016357422 20 27.860666275024414
		endloop
	endfacet
	facet normal -0.6806498546808749 0 -0.7326088829129115
		outer loop
			vertex 27.507061004638672 0 27.4929256439209
			vertex 27.111248016357422 0 27.860666275024414
			vertex 27.111248016357422 20 27.860666275024414
		endloop
	endfacet
	facet normal -0.6233116584342604 0 -0.7819735139120327
		outer loop
			vertex 27.111248016357422 20 27.860666275024414
			vertex 27.111248016357422 0 27.860666275024414
			vertex 26.688762664794922 20 28.197429656982422
		endloop
	endfacet
	facet normal -0.6233116584342604 0 -0.7819735139120327
		outer loop
			vertex 27.111248016357422 0 27.860666275024414
			vertex 26.688762664794922 0 28.197429656982422
			vertex 26.688762664794922 20 28.197429656982422
		endloop
	endfacet
	facet normal -0.5639609415439208 0 -0.8258014630726288
		outer loop
			vertex 26.688762664794922 20 28.197429656982422
			vertex 26.688762664794922 0 28.197429656982422
			vertex 26.242589950561523 20 28.502132415771484
		endloop
	endfacet
	facet normal -0.5639609415439208 0 -0.8258014630726288
		outer loop
			vertex 26.688762664794922 0 28.197429656982422
			vertex 26.242589950561523 0 28.502132415771484
			vertex 26.242589950561523 20 28.502132415771484
		endloop
	endfacet
	facet normal -0.50407469976544 0 -0.8636600587362957
		outer loop
			vertex 26.242589950561523 20 28.502132415771484
			vertex 26.242589950561523 0 28.502132415771484
			vertex 25.77595329284668 20 28.774484634399414
		endloop
	endfacet
	facet normal -0.50407469976544 0 -0.8636600587362957
		outer loop
			vertex 26.242589950561523 0 28.502132415771484
			vertex 25.77595329284668 0 28.774484634399414
			vertex 25.77595329284668 20 28.774484634399414
		endloop
	endfacet
	facet normal -0.4450122977648213 0 -0.8955244579787165
		outer loop
			vertex 25.77595329284668 20 28.774484634399414
			vertex 25.77595329284668 0 28.774484634399414
			vertex 25.292089462280273 20 29.014930725097656
		endloop
	endfacet
	facet normal -0.4450122977648213 0 -0.8955244579787165
		outer loop
			vertex 25.77595329284668 0 28.774484634399414
			vertex 25.292089462280273 0 29.014930725097656
			vertex 25.292089462280273 20 29.014930725097656
		endloop
	endfacet
	facet normal -0.387851677329971 0 -0.921721799889928
		outer loop
			vertex 25.292089462280273 20 29.014930725097656
			vertex 25.292089462280273 0 29.014930725097656
			vertex 24.79405975341797 20 29.224496841430664
		endloop
	endfacet
	facet normal -0.387851677329971 0 -0.921721799889928
		outer loop
			vertex 25.292089462280273 0 29.014930725097656
			vertex 24.79405975341797 0 29.224496841430664
			vertex 24.79405975341797 20 29.224496841430664
		endloop
	endfacet
	facet normal -0.3333935535729037 0 -0.9427877483484983
		outer loop
			vertex 24.79405975341797 20 29.224496841430664
			vertex 24.79405975341797 0 29.224496841430664
			vertex 24.284635543823242 20 29.40464210510254
		endloop
	endfacet
	facet normal -0.3333935535729037 0 -0.9427877483484983
		outer loop
			vertex 24.79405975341797 0 29.224496841430664
			vertex 24.284635543823242 0 29.40464210510254
			vertex 24.284635543823242 20 29.40464210510254
		endloop
	endfacet
	facet normal -0.28209542259828385 0 -0.959386352075688
		outer loop
			vertex 24.284635543823242 20 29.40464210510254
			vertex 24.284635543823242 0 29.40464210510254
			vertex 23.766233444213867 20 29.557071685791016
		endloop
	endfacet
	facet normal -0.28209542259828385 0 -0.959386352075688
		outer loop
			vertex 24.284635543823242 0 29.40464210510254
			vertex 23.766233444213867 0 29.557071685791016
			vertex 23.766233444213867 20 29.557071685791016
		endloop
	endfacet
	facet normal -0.23423968490253053 0 -0.9721788775820853
		outer loop
			vertex 23.766233444213867 20 29.557071685791016
			vertex 23.766233444213867 0 29.557071685791016
			vertex 23.240907669067383 20 29.683645248413086
		endloop
	endfacet
	facet normal -0.23423968490253053 0 -0.9721788775820853
		outer loop
			vertex 23.766233444213867 0 29.557071685791016
			vertex 23.240907669067383 0 29.683645248413086
			vertex 23.240907669067383 20 29.683645248413086
		endloop
	endfacet
	facet normal -0.18985025310453685 0 -0.981813058273388
		outer loop
			vertex 23.240907669067383 20 29.683645248413086
			vertex 23.240907669067383 0 29.683645248413086
			vertex 22.710369110107422 20 29.78623390197754
		endloop
	endfacet
	facet normal -0.18985025310453685 0 -0.981813058273388
		outer loop
			vertex 23.240907669067383 0 29.683645248413086
			vertex 22.710369110107422 0 29.78623390197754
			vertex 22.710369110107422 20 29.78623390197754
		endloop
	endfacet
	facet normal -0.1488544398252372 0 -0.9888591182490634
		outer loop
			vertex 22.710369110107422 20 29.78623390197754
			vertex 22.710369110107422 0 29.78623390197754
			vertex 22.17601776123047 20 29.866670608520508
		endloop
	endfacet
	facet normal -0.1488544398252372 0 -0.9888591182490634
		outer loop
			vertex 22.710369110107422 0 29.78623390197754
			vertex 22.17601776123047 0 29.866670608520508
			vertex 22.17601776123047 20 29.866670608520508
		endloop
	endfacet
	facet normal -0.11108853253934196 0 -0.9938105141012825
		outer loop
			vertex 22.17601776123047 20 29.866670608520508
			vertex 22.17601776123047 0 29.866670608520508
			vertex 21.63898277282715 20 29.926700592041016
		endloop
	endfacet
	facet normal -0.11108853253934196 0 -0.9938105141012825
		outer loop
			vertex 22.17601776123047 0 29.866670608520508
			vertex 21.63898277282715 0 29.926700592041016
			vertex 21.63898277282715 20 29.926700592041016
		endloop
	endfacet
	facet normal -0.07633157251502402 0 -0.9970824895851815
		outer loop
			vertex 21.63898277282715 20 29.926700592041016
			vertex 21.63898277282715 0 29.926700592041016
			vertex 21.100175857543945 20 29.96794891357422
		endloop
	endfacet
	facet normal -0.07633157251502402 0 -0.9970824895851815
		outer loop
			vertex 21.63898277282715 0 29.926700592041016
			vertex 21.100175857543945 0 29.96794891357422
			vertex 21.100175857543945 20 29.96794891357422
		endloop
	endfacet
	facet normal -0.0443599075985846 0 -0.9990156147918036
		outer loop
			vertex 21.100175857543945 20 29.96794891357422
			vertex 21.100175857543945 0 29.96794891357422
			vertex 20.560319900512695 20 29.991920471191406
		endloop
	endfacet
	facet normal -0.0443599075985846 0 -0.9990156147918036
		outer loop
			vertex 21.100175857543945 0 29.96794891357422
			vertex 20.560319900512695 0 29.991920471191406
			vertex 20.560319900512695 20 29.991920471191406
		endloop
	endfacet
	facet normal -0.014933665339914328 0 -0.9998884866021389
		outer loop
			vertex 20.560319900512695 20 29.991920471191406
			vertex 20.560319900512695 0 29.991920471191406
			vertex 20.019990921020508 20 29.999990463256836
		endloop
	endfacet
	facet normal -0.014933665339914328 0 -0.9998884866021389
		outer loop
			vertex 20.560319900512695 0 29.991920471191406
			vertex 20.019990921020508 0 29.999990463256836
			vertex 20.019990921020508 20 29.999990463256836
		endloop
	endfacet
	facet normal -3.176797484433691e-7 0 -0.9999999999999495
		outer loop
			vertex 20.019990921020508 20 29.999990463256836
			vertex 20.019990921020508 0 29.999990463256836
			vertex -10 20 30
		endloop
	endfacet
	facet normal -3.176797484433691e-7 0 -0.9999999999999495
		outer loop
			vertex 20.019990921020508 0 29.999990463256836
			vertex -10 0 30
			vertex -10 20 30
		endloop
	endfacet
endsolid exported
