solid exported
	facet normal 1 0 0
		outer loop
			vertex 40 10 10
			vertex 40 0 10
			vertex 40 10 0
		endloop
	endfacet
	facet normal 1 0 0
		outer loop
			vertex 40 0 10
			vertex 40 0 0
			vertex 40 10 0
		endloop
	endfacet
	facet normal -1 0 0
		outer loop
			vertex 30 0 10
			vertex 30 5 5
			vertex 30 0 5
		endloop
	endfacet
	facet normal -1 0 0
		outer loop
			vertex 30 0 10
			vertex 30 10 10
			vertex 30 5 5
		endloop
	endfacet
	facet normal -1 0 0
		outer loop
			vertex 30 10 10
			vertex 30 10 5
			vertex 30 5 5
		endloop
	endfacet
	facet normal 0 1 0
		outer loop
			vertex 40 10 0
			vertex 35 10 5
			vertex 40 10 5
		endloop
	endfacet
	facet normal 0 1 0
		outer loop
			vertex 40 10 10
			vertex 40 10 5
			vertex 35 10 5
		endloop
	endfacet
	facet normal 0 1 0
		outer loop
			vertex 30 10 10
			vertex 35 10 10
			vertex 35 10 5
		endloop
	endfacet
	facet normal 0 1 0
		outer loop
			vertex 40 10 10
			vertex 35 10 5
			vertex 35 10 10
		endloop
	endfacet
	facet normal 0 1 0
		outer loop
			vertex 30 10 10
			vertex 35 10 5
			vertex 30 10 5
		endloop
	endfacet
	facet normal 0 1 0
		outer loop
			vertex 30 10 0
			vertex 30 10 5
			vertex 35 10 5
		endloop
	endfacet
	facet normal 0 1 0
		outer loop
			vertex 40 10 0
			vertex 35 10 0
			vertex 35 10 5
		endloop
	endfacet
	facet normal 0 1 0
		outer loop
			vertex 30 10 0
			vertex 35 10 5
			vertex 35 10 0
		endloop
	endfacet
	facet normal 0 -1 0
		outer loop
			vertex 30 0 0
			vertex 35 0 0
			vertex 35 0 5
		endloop
	endfacet
	facet normal 0 -1 0
		outer loop
			vertex 40 0 0
			vertex 35 0 5
			vertex 35 0 0
		endloop
	endfacet
	facet normal 0 -1 0
		outer loop
			vertex 40 0 0
			vertex 40 0 5
			vertex 35 0 5
		endloop
	endfacet
	facet normal 0 -1 0
		outer loop
			vertex 40 0 10
			vertex 35 0 5
			vertex 40 0 5
		endloop
	endfacet
	facet normal 0 -1 0
		outer loop
			vertex 40 0 10
			vertex 35 0 10
			vertex 35 0 5
		endloop
	endfacet
	facet normal 0 -1 0
		outer loop
			vertex 30 0 10
			vertex 35 0 5
			vertex 35 0 10
		endloop
	endfacet
	facet normal 0 -1 0
		outer loop
			vertex 30 0 10
			vertex 30 0 5
			vertex 35 0 5
		endloop
	endfacet
	facet normal 0 -1 0
		outer loop
			vertex 30 0 0
			vertex 35 0 5
			vertex 30 0 5
		endloop
	endfacet
	facet normal 0 0 1
		outer loop
			vertex 30 0 10
			vertex 40 0 10
			vertex 40 10 10
		endloop
	endfacet
	facet normal 0 0 1
		outer loop
			vertex 30 10 10
			vertex 30 0 10
			vertex 40 10 10
		endloop
	endfacet
	facet normal 0 0 -1
		outer loop
			vertex 40 0 0
			vertex 35 0 0
			vertex 35 5 0
		endloop
	endfacet
	facet normal 0 0 -1
		outer loop
			vertex 40 10 0
			vertex 35 5 0
			vertex 35 10 0
		endloop
	endfacet
	facet normal 0 0 -1
		outer loop
			vertex 40 10 0
			vertex 40 0 0
			vertex 35 5 0
		endloop
	endfacet
	facet normal 1 0 0
		outer loop
			vertex 35 0 -5
			vertex 35 5 0
			vertex 35 0 0
		endloop
	endfacet
	facet normal 1 0 0
		outer loop
			vertex 35 0 -5
			vertex 35 10 -5
			vertex 35 5 0
		endloop
	endfacet
	facet normal 1 0 0
		outer loop
			vertex 35 10 -5
			vertex 35 10 0
			vertex 35 5 0
		endloop
	endfacet
	facet normal -1 0 0
		outer loop
			vertex 25 10 -5
			vertex 25 0 -5
			vertex 25 10 5
		endloop
	endfacet
	facet normal -1 0 0
		outer loop
			vertex 25 0 -5
			vertex 25 0 5
			vertex 25 10 5
		endloop
	endfacet
	facet normal 0 1 0
		outer loop
			vertex 25 10 5
			vertex 30 10 5
			vertex 30 10 0
		endloop
	endfacet
	facet normal 0 1 0
		outer loop
			vertex 35 10 -5
			vertex 30 10 0
			vertex 35 10 0
		endloop
	endfacet
	facet normal 0 1 0
		outer loop
			vertex 35 10 -5
			vertex 30 10 -5
			vertex 30 10 0
		endloop
	endfacet
	facet normal 0 1 0
		outer loop
			vertex 25 10 -5
			vertex 30 10 0
			vertex 30 10 -5
		endloop
	endfacet
	facet normal 0 1 0
		outer loop
			vertex 25 10 -5
			vertex 25 10 0
			vertex 30 10 0
		endloop
	endfacet
	facet normal 0 1 0
		outer loop
			vertex 25 10 5
			vertex 30 10 0
			vertex 25 10 0
		endloop
	endfacet
	facet normal 0 -1 0
		outer loop
			vertex 25 0 -5
			vertex 30 0 -5
			vertex 30 0 0
		endloop
	endfacet
	facet normal 0 -1 0
		outer loop
			vertex 35 0 -5
			vertex 30 0 0
			vertex 30 0 -5
		endloop
	endfacet
	facet normal 0 -1 0
		outer loop
			vertex 35 0 -5
			vertex 35 0 0
			vertex 30 0 0
		endloop
	endfacet
	facet normal 0 -1 0
		outer loop
			vertex 25 0 5
			vertex 30 0 0
			vertex 30 0 5
		endloop
	endfacet
	facet normal 0 -1 0
		outer loop
			vertex 25 0 5
			vertex 25 0 0
			vertex 30 0 0
		endloop
	endfacet
	facet normal 0 -1 0
		outer loop
			vertex 25 0 -5
			vertex 30 0 0
			vertex 25 0 0
		endloop
	endfacet
	facet normal 0 0 1
		outer loop
			vertex 25 0 5
			vertex 30 0 5
			vertex 30 5 5
		endloop
	endfacet
	facet normal 0 0 1
		outer loop
			vertex 25 10 5
			vertex 30 5 5
			vertex 30 10 5
		endloop
	endfacet
	facet normal 0 0 1
		outer loop
			vertex 25 10 5
			vertex 25 0 5
			vertex 30 5 5
		endloop
	endfacet
	facet normal 0 0 -1
		outer loop
			vertex 35 0 -5
			vertex 25 0 -5
			vertex 25 10 -5
		endloop
	endfacet
	facet normal 0 0 -1
		outer loop
			vertex 35 10 -5
			vertex 35 0 -5
			vertex 25 10 -5
		endloop
	endfacet
endsolid exported
