solid exported
	facet normal 0 -1 0
		outer loop
			vertex 0 0 0
			vertex -10 0 10
			vertex -10 0 -10
		endloop
	endfacet
	facet normal 0 -1 0
		outer loop
			vertex 10 0 -10
			vertex 10 0 10
			vertex 0 0 0
		endloop
	endfacet
	facet normal 0 -1 0
		outer loop
			vertex 0 0 0
			vertex -10 0 -10
			vertex 10 0 -10
		endloop
	endfacet
	facet normal 1 0 0
		outer loop
			vertex 60 36.094757080078125 132.7614288330078
			vertex 60 17.238576889038086 126.09475708007812
			vertex 60 30 120
		endloop
	endfacet
	facet normal 1 0 0
		outer loop
			vertex 60 30 120
			vertex 60 23.905242919921875 107.23857879638672
			vertex 60 42.76142501831055 113.90524291992188
		endloop
	endfacet
	facet normal 1 0 0
		outer loop
			vertex 60 42.76142501831055 113.90524291992188
			vertex 60 36.094757080078125 132.7614288330078
			vertex 60 30 120
		endloop
	endfacet
	facet normal -0.704239776437509 -0.08995929394173112 0.704239776437509
		outer loop
			vertex 0 0 0
			vertex 10 0 10
			vertex 0 34.39339828491211 4.393398284912109
		endloop
	endfacet
	facet normal -0.5968834819353569 -0.042942818071144334 0.8011778974540131
		outer loop
			vertex 10 0 10
			vertex 10 27.322330474853516 11.464466094970703
			vertex 0 34.39339828491211 4.393398284912109
		endloop
	endfacet
	facet normal -0.7071067810962034 -0.5000000000638829 0.5000000000638829
		outer loop
			vertex 0 34.39339828491211 4.393398284912109
			vertex 10 27.322330474853516 11.464466094970703
			vertex 0 60 30
		endloop
	endfacet
	facet normal -0.7050346947712449 -0.5006524164498782 0.5022680928266452
		outer loop
			vertex 10 27.322330474853516 11.464466094970703
			vertex 10 52.2175407409668 36.27959442138672
			vertex 0 60 30
		endloop
	endfacet
	facet normal -0.5692637136026927 -0.8155282593096247 -0.10417524966461623
		outer loop
			vertex 0 60 30
			vertex 10 52.2175407409668 36.27959442138672
			vertex 0 55.60660171508789 64.39339447021484
		endloop
	endfacet
	facet normal -0.633339134726352 -0.7622927351283028 -0.13338413097024465
		outer loop
			vertex 10 52.2175407409668 36.27959442138672
			vertex 10 48.5355339050293 57.322330474853516
			vertex 0 55.60660171508789 64.39339447021484
		endloop
	endfacet
	facet normal -0.7071066857287587 -0.5000001047421404 -0.5000000302555385
		outer loop
			vertex 0 55.60660171508789 64.39339447021484
			vertex 10 48.5355339050293 57.322330474853516
			vertex 0 30 90
		endloop
	endfacet
	facet normal -0.7071067810962034 -0.5000000000638829 -0.5000000000638829
		outer loop
			vertex 10 48.5355339050293 57.322330474853516
			vertex 10 22.928932189941406 82.9289321899414
			vertex 0 30 90
		endloop
	endfacet
	facet normal -0.35740676751808736 -0.8628562123112327 0.35740671427406734
		outer loop
			vertex 0 30 90
			vertex 10 22.928932189941406 82.9289321899414
			vertex 25.60660171508789 30 115.60660552978516
		endloop
	endfacet
	facet normal -0.28016325761461774 -0.9018318316686518 0.32894968683968995
		outer loop
			vertex 10 22.928932189941406 82.9289321899414
			vertex 34.63029098510742 23.905242919921875 106.58291625976562
			vertex 25.60660171508789 30 115.60660552978516
		endloop
	endfacet
	facet normal -0.06549286285614733 -0.8560623105659503 0.5127065489569959
		outer loop
			vertex 25.60660171508789 30 115.60660552978516
			vertex 34.63029098510742 23.905242919921875 106.58291625976562
			vertex 60 30 120
		endloop
	endfacet
	facet normal -0.011137287234969416 -0.902312927419054 0.43093774706505256
		outer loop
			vertex 34.63029098510742 23.905242919921875 106.58291625976562
			vertex 60 23.905242919921875 107.23857879638672
			vertex 60 30 120
		endloop
	endfacet
	facet normal 1 0 0
		outer loop
			vertex 10 0 10
			vertex 10 0 -10
			vertex 10 27.322330474853516 11.464466094970703
		endloop
	endfacet
	facet normal 1 0 0
		outer loop
			vertex 10 0 -10
			vertex 10 41.4644660949707 -2.6776695251464844
			vertex 10 27.322330474853516 11.464466094970703
		endloop
	endfacet
	facet normal 1 0 0
		outer loop
			vertex 10 27.322330474853516 11.464466094970703
			vertex 10 41.4644660949707 -2.6776695251464844
			vertex 10 52.2175407409668 36.27959442138672
		endloop
	endfacet
	facet normal 1 0 0
		outer loop
			vertex 10 41.4644660949707 -2.6776695251464844
			vertex 10 67.78246307373047 23.72040557861328
			vertex 10 52.2175407409668 36.27959442138672
		endloop
	endfacet
	facet normal 1 0 0
		outer loop
			vertex 10 52.2175407409668 36.27959442138672
			vertex 10 67.78246307373047 23.72040557861328
			vertex 10 48.5355339050293 57.322330474853516
		endloop
	endfacet
	facet normal 1 0 0
		outer loop
			vertex 10 67.78246307373047 23.72040557861328
			vertex 10 62.677669525146484 71.46446228027344
			vertex 10 48.5355339050293 57.322330474853516
		endloop
	endfacet
	facet normal 1 0 0
		outer loop
			vertex 10 48.5355339050293 57.322330474853516
			vertex 10 62.677669525146484 71.46446228027344
			vertex 10 22.928932189941406 82.9289321899414
		endloop
	endfacet
	facet normal 1 0 0
		outer loop
			vertex 10 62.677669525146484 71.46446228027344
			vertex 10 37.071067810058594 97.0710678100586
			vertex 10 22.928932189941406 82.9289321899414
		endloop
	endfacet
	facet normal 0.5456064488277707 0.592584847510274 -0.592584847510274
		outer loop
			vertex 10 22.928932189941406 82.9289321899414
			vertex 10 37.071067810058594 97.0710678100586
			vertex 34.63029098510742 23.905242919921875 106.58291625976562
		endloop
	endfacet
	facet normal 0.486664325703882 0.32444271367000965 -0.8111071197034496
		outer loop
			vertex 10 37.071067810058594 97.0710678100586
			vertex 29.91624641418457 42.76142501831055 111.29695892333984
			vertex 34.63029098510742 23.905242919921875 106.58291625976562
		endloop
	endfacet
	facet normal 0.025026299825495448 0.24834359387793356 -0.9683486684541042
		outer loop
			vertex 34.63029098510742 23.905242919921875 106.58291625976562
			vertex 29.91624641418457 42.76142501831055 111.29695892333984
			vertex 60 23.905242919921875 107.23857879638672
		endloop
	endfacet
	facet normal 0.08147052345895613 0.33222511803879134 -0.939674956967267
		outer loop
			vertex 29.91624641418457 42.76142501831055 111.29695892333984
			vertex 60 42.76142501831055 113.90524291992188
			vertex 60 23.905242919921875 107.23857879638672
		endloop
	endfacet
	facet normal 0 0.17390214677463578 -0.9847629376388883
		outer loop
			vertex 10 0 -10
			vertex -10 0 -10
			vertex 10 41.4644660949707 -2.6776695251464844
		endloop
	endfacet
	facet normal 0 0.17390214677463578 -0.9847629376388883
		outer loop
			vertex -10 0 -10
			vertex -10 41.4644660949707 -2.6776695251464844
			vertex 10 41.4644660949707 -2.6776695251464844
		endloop
	endfacet
	facet normal 0 0.708180091671602 -0.7060318390554363
		outer loop
			vertex 10 41.4644660949707 -2.6776695251464844
			vertex -10 41.4644660949707 -2.6776695251464844
			vertex 10 67.78246307373047 23.72040557861328
		endloop
	endfacet
	facet normal 0 0.708180091671602 -0.7060318390554363
		outer loop
			vertex -10 41.4644660949707 -2.6776695251464844
			vertex -10 67.78246307373047 23.72040557861328
			vertex 10 67.78246307373047 23.72040557861328
		endloop
	endfacet
	facet normal 0 0.9943326047425266 0.10631402139860187
		outer loop
			vertex 10 67.78246307373047 23.72040557861328
			vertex -10 67.78246307373047 23.72040557861328
			vertex 10 62.677669525146484 71.46446228027344
		endloop
	endfacet
	facet normal 0 0.9943326047425266 0.10631402139860187
		outer loop
			vertex -10 67.78246307373047 23.72040557861328
			vertex -10 62.677669525146484 71.46446228027344
			vertex 10 62.677669525146484 71.46446228027344
		endloop
	endfacet
	facet normal 0 0.7071068338565198 0.7071067285165714
		outer loop
			vertex 10 62.677669525146484 71.46446228027344
			vertex -10 62.677669525146484 71.46446228027344
			vertex 10 37.071067810058594 97.0710678100586
		endloop
	endfacet
	facet normal 0 0.7071068338565198 0.7071067285165714
		outer loop
			vertex -10 62.677669525146484 71.46446228027344
			vertex -10 37.071067810058594 97.0710678100586
			vertex 10 37.071067810058594 97.0710678100586
		endloop
	endfacet
	facet normal 0 0.9284766737147327 -0.3713907192804177
		outer loop
			vertex 10 37.071067810058594 97.0710678100586
			vertex -10 37.071067810058594 97.0710678100586
			vertex 29.91624641418457 42.76142501831055 111.29695892333984
		endloop
	endfacet
	facet normal -0.2229152459648874 0.9426557874937459 0.24841267967026118
		outer loop
			vertex -10 37.071067810058594 97.0710678100586
			vertex 16.58291244506836 36.094757080078125 124.63029479980469
			vertex 29.91624641418457 42.76142501831055 111.29695892333984
		endloop
	endfacet
	facet normal -0.03621599430575283 0.9078571466651946 0.417712584207583
		outer loop
			vertex 29.91624641418457 42.76142501831055 111.29695892333984
			vertex 16.58291244506836 36.094757080078125 124.63029479980469
			vertex 60 42.76142501831055 113.90524291992188
		endloop
	endfacet
	facet normal -0.062305237239658494 0.9409773051198518 0.33268569049763974
		outer loop
			vertex 16.58291244506836 36.094757080078125 124.63029479980469
			vertex 60 36.094757080078125 132.7614288330078
			vertex 60 42.76142501831055 113.90524291992188
		endloop
	endfacet
	facet normal -1 0 0
		outer loop
			vertex -10 0 -10
			vertex -10 0 10
			vertex -10 41.4644660949707 -2.6776695251464844
		endloop
	endfacet
	facet normal -1 0 0
		outer loop
			vertex -10 0 10
			vertex -10 27.322330474853516 11.464466094970703
			vertex -10 41.4644660949707 -2.6776695251464844
		endloop
	endfacet
	facet normal -1 0 0
		outer loop
			vertex -10 41.4644660949707 -2.6776695251464844
			vertex -10 27.322330474853516 11.464466094970703
			vertex -10 67.78246307373047 23.72040557861328
		endloop
	endfacet
	facet normal -1 0 0
		outer loop
			vertex -10 27.322330474853516 11.464466094970703
			vertex -10 52.2175407409668 36.27959442138672
			vertex -10 67.78246307373047 23.72040557861328
		endloop
	endfacet
	facet normal -1 0 0
		outer loop
			vertex -10 67.78246307373047 23.72040557861328
			vertex -10 52.2175407409668 36.27959442138672
			vertex -10 62.677669525146484 71.46446228027344
		endloop
	endfacet
	facet normal -1 0 0
		outer loop
			vertex -10 52.2175407409668 36.27959442138672
			vertex -10 48.5355339050293 57.322330474853516
			vertex -10 62.677669525146484 71.46446228027344
		endloop
	endfacet
	facet normal -1 0 0
		outer loop
			vertex -10 62.677669525146484 71.46446228027344
			vertex -10 48.5355339050293 57.322330474853516
			vertex -10 37.071067810058594 97.0710678100586
		endloop
	endfacet
	facet normal -1 0 0
		outer loop
			vertex -10 48.5355339050293 57.322330474853516
			vertex -10 22.928932189941406 82.9289321899414
			vertex -10 37.071067810058594 97.0710678100586
		endloop
	endfacet
	facet normal -0.6046018421499959 -0.5632302426489684 0.5632302426489684
		outer loop
			vertex -10 37.071067810058594 97.0710678100586
			vertex -10 22.928932189941406 82.9289321899414
			vertex 16.58291244506836 36.094757080078125 124.63029479980469
		endloop
	endfacet
	facet normal -0.744845268968193 -0.33104248188941054 0.5793240893318692
		outer loop
			vertex -10 22.928932189941406 82.9289321899414
			vertex 21.29695701599121 17.238576889038086 119.91624450683594
			vertex 16.58291244506836 36.094757080078125 124.63029479980469
		endloop
	endfacet
	facet normal -0.1767122079618417 -0.2800718942655715 0.9435743370820051
		outer loop
			vertex 16.58291244506836 36.094757080078125 124.63029479980469
			vertex 21.29695701599121 17.238576889038086 119.91624450683594
			vertex 60 36.094757080078125 132.7614288330078
		endloop
	endfacet
	facet normal -0.14883270738993187 -0.3296210299659459 0.9323083190743136
		outer loop
			vertex 21.29695701599121 17.238576889038086 119.91624450683594
			vertex 60 17.238576889038086 126.09475708007812
			vertex 60 36.094757080078125 132.7614288330078
		endloop
	endfacet
	facet normal 0.7065994628066538 -0.03787345142308563 0.7065994628066538
		outer loop
			vertex -10 0 10
			vertex 0 0 0
			vertex -10 27.322330474853516 11.464466094970703
		endloop
	endfacet
	facet normal 0.6203838099101925 -0.09937842676814691 0.7779767713077315
		outer loop
			vertex 0 0 0
			vertex 0 34.39339828491211 4.393398284912109
			vertex -10 27.322330474853516 11.464466094970703
		endloop
	endfacet
	facet normal 0.7071063223206019 -0.4991941904232956 0.5008051608977924
		outer loop
			vertex -10 27.322330474853516 11.464466094970703
			vertex 0 34.39339828491211 4.393398284912109
			vertex -10 52.2175407409668 36.27959442138672
		endloop
	endfacet
	facet normal 0.7050962058286148 -0.5014176605017476 0.5014176605017476
		outer loop
			vertex 0 34.39339828491211 4.393398284912109
			vertex 0 60 30
			vertex -10 52.2175407409668 36.27959442138672
		endloop
	endfacet
	facet normal 0.5498902946734383 -0.8227369179617872 -0.14396050724660248
		outer loop
			vertex -10 52.2175407409668 36.27959442138672
			vertex 0 60 30
			vertex -10 48.5355339050293 57.322330474853516
		endloop
	endfacet
	facet normal 0.6203837907056589 -0.777976784990775 -0.09937843953843842
		outer loop
			vertex 0 60 30
			vertex 0 55.60660171508789 64.39339447021484
			vertex -10 48.5355339050293 57.322330474853516
		endloop
	endfacet
	facet normal 0.7071066857287525 -0.5000000674988451 -0.5000000674988451
		outer loop
			vertex -10 48.5355339050293 57.322330474853516
			vertex 0 55.60660171508789 64.39339447021484
			vertex -10 22.928932189941406 82.9289321899414
		endloop
	endfacet
	facet normal 0.7071067810962025 -0.5000000373071782 -0.4999999628205864
		outer loop
			vertex 0 55.60660171508789 64.39339447021484
			vertex 0 30 90
			vertex -10 22.928932189941406 82.9289321899414
		endloop
	endfacet
	facet normal 0.6913394420762523 -0.34035913890341873 -0.6373424765340998
		outer loop
			vertex -10 22.928932189941406 82.9289321899414
			vertex 0 30 90
			vertex 21.29695701599121 17.238576889038086 119.91624450683594
		endloop
	endfacet
	facet normal 0.6380712902332775 -0.43096424267501465 -0.638071195177773
		outer loop
			vertex 0 30 90
			vertex 25.60660171508789 30 115.60660552978516
			vertex 21.29695701599121 17.238576889038086 119.91624450683594
		endloop
	endfacet
	facet normal 0.14703117447299463 -0.3606909568746481 -0.9210232718894472
		outer loop
			vertex 21.29695701599121 17.238576889038086 119.91624450683594
			vertex 25.60660171508789 30 115.60660552978516
			vertex 60 17.238576889038086 126.09475708007812
		endloop
	endfacet
	facet normal 0.11450990599133277 -0.4281295855456684 -0.8964332319868283
		outer loop
			vertex 25.60660171508789 30 115.60660552978516
			vertex 60 30 120
			vertex 60 17.238576889038086 126.09475708007812
		endloop
	endfacet
endsolid exported
