solid exported
	facet normal 1 0 0
		outer loop
			vertex 32 6 2
			vertex 32 4 2
			vertex 32 6 0
		endloop
	endfacet
	facet normal 1 0 0
		outer loop
			vertex 32 4 2
			vertex 32 4 0
			vertex 32 6 0
		endloop
	endfacet
	facet normal -1 0 0
		outer loop
			vertex 30 4 2
			vertex 30 5 1
			vertex 30 4 1
		endloop
	endfacet
	facet normal -1 0 0
		outer loop
			vertex 30 4 2
			vertex 30 6 2
			vertex 30 5 1
		endloop
	endfacet
	facet normal -1 0 0
		outer loop
			vertex 30 6 2
			vertex 30 6 1
			vertex 30 5 1
		endloop
	endfacet
	facet normal 0 1 0
		outer loop
			vertex 32 6 0
			vertex 31 6 1
			vertex 32 6 1
		endloop
	endfacet
	facet normal 0 1 0
		outer loop
			vertex 32 6 2
			vertex 32 6 1
			vertex 31 6 1
		endloop
	endfacet
	facet normal 0 1 0
		outer loop
			vertex 30 6 2
			vertex 31 6 2
			vertex 31 6 1
		endloop
	endfacet
	facet normal 0 1 0
		outer loop
			vertex 32 6 2
			vertex 31 6 1
			vertex 31 6 2
		endloop
	endfacet
	facet normal 0 1 0
		outer loop
			vertex 30 6 2
			vertex 31 6 1
			vertex 30 6 1
		endloop
	endfacet
	facet normal 0 1 0
		outer loop
			vertex 30 6 0
			vertex 30 6 1
			vertex 31 6 1
		endloop
	endfacet
	facet normal 0 1 0
		outer loop
			vertex 32 6 0
			vertex 31 6 0
			vertex 31 6 1
		endloop
	endfacet
	facet normal 0 1 0
		outer loop
			vertex 30 6 0
			vertex 31 6 1
			vertex 31 6 0
		endloop
	endfacet
	facet normal 0 -1 0
		outer loop
			vertex 30 4 0
			vertex 31 4 0
			vertex 31 4 1
		endloop
	endfacet
	facet normal 0 -1 0
		outer loop
			vertex 32 4 0
			vertex 31 4 1
			vertex 31 4 0
		endloop
	endfacet
	facet normal 0 -1 0
		outer loop
			vertex 32 4 0
			vertex 32 4 1
			vertex 31 4 1
		endloop
	endfacet
	facet normal 0 -1 0
		outer loop
			vertex 32 4 2
			vertex 31 4 1
			vertex 32 4 1
		endloop
	endfacet
	facet normal 0 -1 0
		outer loop
			vertex 32 4 2
			vertex 31 4 2
			vertex 31 4 1
		endloop
	endfacet
	facet normal 0 -1 0
		outer loop
			vertex 30 4 2
			vertex 31 4 1
			vertex 31 4 2
		endloop
	endfacet
	facet normal 0 -1 0
		outer loop
			vertex 30 4 2
			vertex 30 4 1
			vertex 31 4 1
		endloop
	endfacet
	facet normal 0 -1 0
		outer loop
			vertex 30 4 0
			vertex 31 4 1
			vertex 30 4 1
		endloop
	endfacet
	facet normal 0 0 1
		outer loop
			vertex 30 4 2
			vertex 32 4 2
			vertex 32 6 2
		endloop
	endfacet
	facet normal 0 0 1
		outer loop
			vertex 30 6 2
			vertex 30 4 2
			vertex 32 6 2
		endloop
	endfacet
	facet normal 0 0 -1
		outer loop
			vertex 32 4 0
			vertex 31 4 0
			vertex 31 5 0
		endloop
	endfacet
	facet normal 0 0 -1
		outer loop
			vertex 32 6 0
			vertex 31 5 0
			vertex 31 6 0
		endloop
	endfacet
	facet normal 0 0 -1
		outer loop
			vertex 32 6 0
			vertex 32 4 0
			vertex 31 5 0
		endloop
	endfacet
	facet normal 1 0 0
		outer loop
			vertex 31 4 -1
			vertex 31 5 0
			vertex 31 4 0
		endloop
	endfacet
	facet normal 1 0 0
		outer loop
			vertex 31 4 -1
			vertex 31 6 -1
			vertex 31 5 0
		endloop
	endfacet
	facet normal 1 0 0
		outer loop
			vertex 31 6 -1
			vertex 31 6 0
			vertex 31 5 0
		endloop
	endfacet
	facet normal -1 0 0
		outer loop
			vertex 29 6 -1
			vertex 29 4 -1
			vertex 29 6 1
		endloop
	endfacet
	facet normal -1 0 0
		outer loop
			vertex 29 4 -1
			vertex 29 4 1
			vertex 29 6 1
		endloop
	endfacet
	facet normal 0 1 0
		outer loop
			vertex 29 6 1
			vertex 30 6 1
			vertex 30 6 0
		endloop
	endfacet
	facet normal 0 1 0
		outer loop
			vertex 31 6 -1
			vertex 30 6 0
			vertex 31 6 0
		endloop
	endfacet
	facet normal 0 1 0
		outer loop
			vertex 31 6 -1
			vertex 30 6 -1
			vertex 30 6 0
		endloop
	endfacet
	facet normal 0 1 0
		outer loop
			vertex 29 6 -1
			vertex 30 6 0
			vertex 30 6 -1
		endloop
	endfacet
	facet normal 0 1 0
		outer loop
			vertex 29 6 -1
			vertex 29 6 0
			vertex 30 6 0
		endloop
	endfacet
	facet normal 0 1 0
		outer loop
			vertex 29 6 1
			vertex 30 6 0
			vertex 29 6 0
		endloop
	endfacet
	facet normal 0 -1 0
		outer loop
			vertex 29 4 -1
			vertex 30 4 -1
			vertex 30 4 0
		endloop
	endfacet
	facet normal 0 -1 0
		outer loop
			vertex 31 4 -1
			vertex 30 4 0
			vertex 30 4 -1
		endloop
	endfacet
	facet normal 0 -1 0
		outer loop
			vertex 31 4 -1
			vertex 31 4 0
			vertex 30 4 0
		endloop
	endfacet
	facet normal 0 -1 0
		outer loop
			vertex 29 4 1
			vertex 30 4 0
			vertex 30 4 1
		endloop
	endfacet
	facet normal 0 -1 0
		outer loop
			vertex 29 4 1
			vertex 29 4 0
			vertex 30 4 0
		endloop
	endfacet
	facet normal 0 -1 0
		outer loop
			vertex 29 4 -1
			vertex 30 4 0
			vertex 29 4 0
		endloop
	endfacet
	facet normal 0 0 1
		outer loop
			vertex 29 4 1
			vertex 30 4 1
			vertex 30 5 1
		endloop
	endfacet
	facet normal 0 0 1
		outer loop
			vertex 29 6 1
			vertex 30 5 1
			vertex 30 6 1
		endloop
	endfacet
	facet normal 0 0 1
		outer loop
			vertex 29 6 1
			vertex 29 4 1
			vertex 30 5 1
		endloop
	endfacet
	facet normal 0 0 -1
		outer loop
			vertex 31 4 -1
			vertex 29 4 -1
			vertex 29 6 -1
		endloop
	endfacet
	facet normal 0 0 -1
		outer loop
			vertex 31 6 -1
			vertex 31 4 -1
			vertex 29 6 -1
		endloop
	endfacet
endsolid exported
