solid exported
	facet normal 1 0 0
		outer loop
			vertex 20 30 25
			vertex 20 -30 25
			vertex 20 30 -25
		endloop
	endfacet
	facet normal 1 0 0
		outer loop
			vertex 20 -30 25
			vertex 20 -30 -25
			vertex 20 30 -25
		endloop
	endfacet
	facet normal -1 0 0
		outer loop
			vertex -20 30 -25
			vertex -20 -30 -25
			vertex -20 30 25
		endloop
	endfacet
	facet normal -1 0 0
		outer loop
			vertex -20 -30 -25
			vertex -20 -30 25
			vertex -20 30 25
		endloop
	endfacet
	facet normal 0 1 0
		outer loop
			vertex -20 30 -25
			vertex -20 30 25
			vertex 20 30 -25
		endloop
	endfacet
	facet normal 0 1 0
		outer loop
			vertex -20 30 25
			vertex 20 30 25
			vertex 20 30 -25
		endloop
	endfacet
	facet normal 0 -1 0
		outer loop
			vertex -20 -30 25
			vertex -20 -30 -25
			vertex 20 -30 25
		endloop
	endfacet
	facet normal 0 -1 0
		outer loop
			vertex -20 -30 -25
			vertex 20 -30 -25
			vertex 20 -30 25
		endloop
	endfacet
	facet normal 0 0 1
		outer loop
			vertex -20 30 25
			vertex -20 -30 25
			vertex 20 30 25
		endloop
	endfacet
	facet normal 0 0 1
		outer loop
			vertex -20 -30 25
			vertex 20 -30 25
			vertex 20 30 25
		endloop
	endfacet
	facet normal 0 0 -1
		outer loop
			vertex 20 30 -25
			vertex 20 -30 -25
			vertex -20 30 -25
		endloop
	endfacet
	facet normal 0 0 -1
		outer loop
			vertex 20 -30 -25
			vertex -20 -30 -25
			vertex -20 30 -25
		endloop
	endfacet
endsolid exported
