solid exported
	facet normal 1 0 0
		outer loop
			vertex 80 50 20
			vertex 80 0 20
			vertex 80 50 0
		endloop
	endfacet
	facet normal 1 0 0
		outer loop
			vertex 80 0 20
			vertex 80 0 0
			vertex 80 50 0
		endloop
	endfacet
	facet normal -1 0 0
		outer loop
			vertex 60 0 20
			vertex 60 25 10
			vertex 60 0 10
		endloop
	endfacet
	facet normal -1 0 0
		outer loop
			vertex 60 0 20
			vertex 60 50 20
			vertex 60 25 10
		endloop
	endfacet
	facet normal -1 0 0
		outer loop
			vertex 60 50 20
			vertex 60 50 10
			vertex 60 25 10
		endloop
	endfacet
	facet normal 0 1 0
		outer loop
			vertex 80 50 0
			vertex 70 50 10
			vertex 80 50 10
		endloop
	endfacet
	facet normal 0 1 0
		outer loop
			vertex 80 50 20
			vertex 80 50 10
			vertex 70 50 10
		endloop
	endfacet
	facet normal 0 1 0
		outer loop
			vertex 60 50 20
			vertex 70 50 20
			vertex 70 50 10
		endloop
	endfacet
	facet normal 0 1 0
		outer loop
			vertex 80 50 20
			vertex 70 50 10
			vertex 70 50 20
		endloop
	endfacet
	facet normal 0 1 0
		outer loop
			vertex 60 50 20
			vertex 70 50 10
			vertex 60 50 10
		endloop
	endfacet
	facet normal 0 1 0
		outer loop
			vertex 60 50 0
			vertex 60 50 10
			vertex 70 50 10
		endloop
	endfacet
	facet normal 0 1 0
		outer loop
			vertex 80 50 0
			vertex 70 50 0
			vertex 70 50 10
		endloop
	endfacet
	facet normal 0 1 0
		outer loop
			vertex 60 50 0
			vertex 70 50 10
			vertex 70 50 0
		endloop
	endfacet
	facet normal 0 -1 0
		outer loop
			vertex 60 0 0
			vertex 70 0 0
			vertex 70 0 10
		endloop
	endfacet
	facet normal 0 -1 0
		outer loop
			vertex 80 0 0
			vertex 70 0 10
			vertex 70 0 0
		endloop
	endfacet
	facet normal 0 -1 0
		outer loop
			vertex 80 0 0
			vertex 80 0 10
			vertex 70 0 10
		endloop
	endfacet
	facet normal 0 -1 0
		outer loop
			vertex 80 0 20
			vertex 70 0 10
			vertex 80 0 10
		endloop
	endfacet
	facet normal 0 -1 0
		outer loop
			vertex 80 0 20
			vertex 70 0 20
			vertex 70 0 10
		endloop
	endfacet
	facet normal 0 -1 0
		outer loop
			vertex 60 0 20
			vertex 70 0 10
			vertex 70 0 20
		endloop
	endfacet
	facet normal 0 -1 0
		outer loop
			vertex 60 0 20
			vertex 60 0 10
			vertex 70 0 10
		endloop
	endfacet
	facet normal 0 -1 0
		outer loop
			vertex 60 0 0
			vertex 70 0 10
			vertex 60 0 10
		endloop
	endfacet
	facet normal 0 0 1
		outer loop
			vertex 60 0 20
			vertex 80 0 20
			vertex 80 50 20
		endloop
	endfacet
	facet normal 0 0 1
		outer loop
			vertex 60 50 20
			vertex 60 0 20
			vertex 80 50 20
		endloop
	endfacet
	facet normal 0 0 -1
		outer loop
			vertex 80 0 0
			vertex 70 0 0
			vertex 70 25 0
		endloop
	endfacet
	facet normal 0 0 -1
		outer loop
			vertex 80 50 0
			vertex 70 25 0
			vertex 70 50 0
		endloop
	endfacet
	facet normal 0 0 -1
		outer loop
			vertex 80 50 0
			vertex 80 0 0
			vertex 70 25 0
		endloop
	endfacet
	facet normal 1 0 0
		outer loop
			vertex 70 0 -10
			vertex 70 25 0
			vertex 70 0 0
		endloop
	endfacet
	facet normal 1 0 0
		outer loop
			vertex 70 0 -10
			vertex 70 50 -10
			vertex 70 25 0
		endloop
	endfacet
	facet normal 1 0 0
		outer loop
			vertex 70 50 -10
			vertex 70 50 0
			vertex 70 25 0
		endloop
	endfacet
	facet normal -1 0 0
		outer loop
			vertex 50 50 -10
			vertex 50 0 -10
			vertex 50 50 10
		endloop
	endfacet
	facet normal -1 0 0
		outer loop
			vertex 50 0 -10
			vertex 50 0 10
			vertex 50 50 10
		endloop
	endfacet
	facet normal 0 1 0
		outer loop
			vertex 50 50 10
			vertex 60 50 10
			vertex 60 50 0
		endloop
	endfacet
	facet normal 0 1 0
		outer loop
			vertex 70 50 -10
			vertex 60 50 0
			vertex 70 50 0
		endloop
	endfacet
	facet normal 0 1 0
		outer loop
			vertex 70 50 -10
			vertex 60 50 -10
			vertex 60 50 0
		endloop
	endfacet
	facet normal 0 1 0
		outer loop
			vertex 50 50 -10
			vertex 60 50 0
			vertex 60 50 -10
		endloop
	endfacet
	facet normal 0 1 0
		outer loop
			vertex 50 50 -10
			vertex 50 50 0
			vertex 60 50 0
		endloop
	endfacet
	facet normal 0 1 0
		outer loop
			vertex 50 50 10
			vertex 60 50 0
			vertex 50 50 0
		endloop
	endfacet
	facet normal 0 -1 0
		outer loop
			vertex 50 0 -10
			vertex 60 0 -10
			vertex 60 0 0
		endloop
	endfacet
	facet normal 0 -1 0
		outer loop
			vertex 70 0 -10
			vertex 60 0 0
			vertex 60 0 -10
		endloop
	endfacet
	facet normal 0 -1 0
		outer loop
			vertex 70 0 -10
			vertex 70 0 0
			vertex 60 0 0
		endloop
	endfacet
	facet normal 0 -1 0
		outer loop
			vertex 50 0 10
			vertex 60 0 0
			vertex 60 0 10
		endloop
	endfacet
	facet normal 0 -1 0
		outer loop
			vertex 50 0 10
			vertex 50 0 0
			vertex 60 0 0
		endloop
	endfacet
	facet normal 0 -1 0
		outer loop
			vertex 50 0 -10
			vertex 60 0 0
			vertex 50 0 0
		endloop
	endfacet
	facet normal 0 0 1
		outer loop
			vertex 50 0 10
			vertex 60 0 10
			vertex 60 25 10
		endloop
	endfacet
	facet normal 0 0 1
		outer loop
			vertex 50 50 10
			vertex 60 25 10
			vertex 60 50 10
		endloop
	endfacet
	facet normal 0 0 1
		outer loop
			vertex 50 50 10
			vertex 50 0 10
			vertex 60 25 10
		endloop
	endfacet
	facet normal 0 0 -1
		outer loop
			vertex 70 0 -10
			vertex 50 0 -10
			vertex 50 50 -10
		endloop
	endfacet
	facet normal 0 0 -1
		outer loop
			vertex 70 50 -10
			vertex 70 0 -10
			vertex 50 50 -10
		endloop
	endfacet
endsolid exported
