solid exported
	facet normal 0.06279016980912182 0 0.9980267504307395
		outer loop
			vertex 30 20 5
			vertex 30 0 5
			vertex 30.626667022705078 20 4.960573673248291
		endloop
	endfacet
	facet normal 0.06279016980912182 0 0.9980267504307395
		outer loop
			vertex 30 0 5
			vertex 30.626667022705078 0 4.960573673248291
			vertex 30.626667022705078 20 4.960573673248291
		endloop
	endfacet
	facet normal 0.18738129081012145 0 0.9822872552641274
		outer loop
			vertex 30.626667022705078 20 4.960573673248291
			vertex 30.626667022705078 0 4.960573673248291
			vertex 31.243450164794922 20 4.842916011810303
		endloop
	endfacet
	facet normal 0.18738129081012145 0 0.9822872552641274
		outer loop
			vertex 30.626667022705078 0 4.960573673248291
			vertex 31.243450164794922 0 4.842916011810303
			vertex 31.243450164794922 20 4.842916011810303
		endloop
	endfacet
	facet normal 0.3090180722662729 0 0.9510561660663563
		outer loop
			vertex 31.243450164794922 20 4.842916011810303
			vertex 31.243450164794922 0 4.842916011810303
			vertex 31.840621948242188 20 4.6488823890686035
		endloop
	endfacet
	facet normal 0.3090180722662729 0 0.9510561660663563
		outer loop
			vertex 31.243450164794922 0 4.842916011810303
			vertex 31.840621948242188 0 4.6488823890686035
			vertex 31.840621948242188 20 4.6488823890686035
		endloop
	endfacet
	facet normal 0.4257788598969242 0 0.9048272555935057
		outer loop
			vertex 31.840621948242188 20 4.6488823890686035
			vertex 31.840621948242188 0 4.6488823890686035
			vertex 32.40876770019531 20 4.381533622741699
		endloop
	endfacet
	facet normal 0.4257788598969242 0 0.9048272555935057
		outer loop
			vertex 31.840621948242188 0 4.6488823890686035
			vertex 32.40876770019531 0 4.381533622741699
			vertex 32.40876770019531 20 4.381533622741699
		endloop
	endfacet
	facet normal 0.5358262720802821 0 0.8443282573434029
		outer loop
			vertex 32.40876770019531 20 4.381533622741699
			vertex 32.40876770019531 0 4.381533622741699
			vertex 32.938926696777344 20 4.0450849533081055
		endloop
	endfacet
	facet normal 0.5358262720802821 0 0.8443282573434029
		outer loop
			vertex 32.40876770019531 0 4.381533622741699
			vertex 32.938926696777344 0 4.0450849533081055
			vertex 32.938926696777344 20 4.0450849533081055
		endloop
	endfacet
	facet normal 0.637423101156097 0 0.7705139778826495
		outer loop
			vertex 32.938926696777344 20 4.0450849533081055
			vertex 32.938926696777344 0 4.0450849533081055
			vertex 33.42273712158203 20 3.644843101501465
		endloop
	endfacet
	facet normal 0.637423101156097 0 0.7705139778826495
		outer loop
			vertex 32.938926696777344 0 4.0450849533081055
			vertex 33.42273712158203 0 3.644843101501465
			vertex 33.42273712158203 20 3.644843101501465
		endloop
	endfacet
	facet normal 0.7289702134547529 0 0.6845454169708042
		outer loop
			vertex 33.42273712158203 20 3.644843101501465
			vertex 33.42273712158203 0 3.644843101501465
			vertex 33.85256576538086 20 3.187119960784912
		endloop
	endfacet
	facet normal 0.7289702134547529 0 0.6845454169708042
		outer loop
			vertex 33.42273712158203 0 3.644843101501465
			vertex 33.85256576538086 0 3.187119960784912
			vertex 33.85256576538086 20 3.187119960784912
		endloop
	endfacet
	facet normal 0.8090152581451383 0 0.58778764200037
		outer loop
			vertex 33.85256576538086 20 3.187119960784912
			vertex 33.85256576538086 0 3.187119960784912
			vertex 34.221641540527344 20 2.679133892059326
		endloop
	endfacet
	facet normal 0.8090152581451383 0 0.58778764200037
		outer loop
			vertex 33.85256576538086 0 3.187119960784912
			vertex 34.221641540527344 0 2.679133892059326
			vertex 34.221641540527344 20 2.679133892059326
		endloop
	endfacet
	facet normal 0.8763077092942527 0 0.4817518018974704
		outer loop
			vertex 34.221641540527344 20 2.679133892059326
			vertex 34.221641540527344 0 2.679133892059326
			vertex 34.52413558959961 20 2.128896474838257
		endloop
	endfacet
	facet normal 0.8763077092942527 0 0.4817518018974704
		outer loop
			vertex 34.221641540527344 0 2.679133892059326
			vertex 34.52413558959961 0 2.128896474838257
			vertex 34.52413558959961 20 2.128896474838257
		endloop
	endfacet
	facet normal 0.9297762499232 0 0.3681251486638091
		outer loop
			vertex 34.52413558959961 20 2.128896474838257
			vertex 34.52413558959961 0 2.128896474838257
			vertex 34.75528335571289 20 1.5450849533081055
		endloop
	endfacet
	facet normal 0.9297762499232 0 0.3681251486638091
		outer loop
			vertex 34.52413558959961 0 2.128896474838257
			vertex 34.75528335571289 0 1.5450849533081055
			vertex 34.75528335571289 20 1.5450849533081055
		endloop
	endfacet
	facet normal 0.9685827905523084 0 0.24869133045987565
		outer loop
			vertex 34.75528335571289 20 1.5450849533081055
			vertex 34.75528335571289 0 1.5450849533081055
			vertex 34.91143798828125 20 0.9369065761566162
		endloop
	endfacet
	facet normal 0.9685827905523084 0 0.24869133045987565
		outer loop
			vertex 34.75528335571289 0 1.5450849533081055
			vertex 34.91143798828125 0 0.9369065761566162
			vertex 34.91143798828125 20 0.9369065761566162
		endloop
	endfacet
	facet normal 0.9921147378810865 0 0.12533294410945217
		outer loop
			vertex 34.91143798828125 20 0.9369065761566162
			vertex 34.91143798828125 0 0.9369065761566162
			vertex 34.990135192871094 20 0.31395259499549866
		endloop
	endfacet
	facet normal 0.9921147378810865 0 0.12533294410945217
		outer loop
			vertex 34.91143798828125 0 0.9369065761566162
			vertex 34.990135192871094 0 0.31395259499549866
			vertex 34.990135192871094 20 0.31395259499549866
		endloop
	endfacet
	facet normal 1 0 0
		outer loop
			vertex 34.990135192871094 20 0.31395259499549866
			vertex 34.990135192871094 0 0.31395259499549866
			vertex 34.990135192871094 20 -0.31395259499549866
		endloop
	endfacet
	facet normal 1 0 0
		outer loop
			vertex 34.990135192871094 0 0.31395259499549866
			vertex 34.990135192871094 0 -0.31395259499549866
			vertex 34.990135192871094 20 -0.31395259499549866
		endloop
	endfacet
	facet normal 0.9921147378810865 0 -0.12533294410945217
		outer loop
			vertex 34.990135192871094 20 -0.31395259499549866
			vertex 34.990135192871094 0 -0.31395259499549866
			vertex 34.91143798828125 20 -0.9369065761566162
		endloop
	endfacet
	facet normal 0.9921147378810865 0 -0.12533294410945217
		outer loop
			vertex 34.990135192871094 0 -0.31395259499549866
			vertex 34.91143798828125 0 -0.9369065761566162
			vertex 34.91143798828125 20 -0.9369065761566162
		endloop
	endfacet
	facet normal 0.9685827905523084 0 -0.24869133045987565
		outer loop
			vertex 34.91143798828125 20 -0.9369065761566162
			vertex 34.91143798828125 0 -0.9369065761566162
			vertex 34.75528335571289 20 -1.5450849533081055
		endloop
	endfacet
	facet normal 0.9685827905523084 0 -0.24869133045987565
		outer loop
			vertex 34.91143798828125 0 -0.9369065761566162
			vertex 34.75528335571289 0 -1.5450849533081055
			vertex 34.75528335571289 20 -1.5450849533081055
		endloop
	endfacet
	facet normal 0.9297762499232 0 -0.3681251486638091
		outer loop
			vertex 34.75528335571289 20 -1.5450849533081055
			vertex 34.75528335571289 0 -1.5450849533081055
			vertex 34.52413558959961 20 -2.128896474838257
		endloop
	endfacet
	facet normal 0.9297762499232 0 -0.3681251486638091
		outer loop
			vertex 34.75528335571289 0 -1.5450849533081055
			vertex 34.52413558959961 0 -2.128896474838257
			vertex 34.52413558959961 20 -2.128896474838257
		endloop
	endfacet
	facet normal 0.8763077092942527 0 -0.4817518018974704
		outer loop
			vertex 34.52413558959961 20 -2.128896474838257
			vertex 34.52413558959961 0 -2.128896474838257
			vertex 34.221641540527344 20 -2.679133892059326
		endloop
	endfacet
	facet normal 0.8763077092942527 0 -0.4817518018974704
		outer loop
			vertex 34.52413558959961 0 -2.128896474838257
			vertex 34.221641540527344 0 -2.679133892059326
			vertex 34.221641540527344 20 -2.679133892059326
		endloop
	endfacet
	facet normal 0.8090152581451383 0 -0.58778764200037
		outer loop
			vertex 34.221641540527344 20 -2.679133892059326
			vertex 34.221641540527344 0 -2.679133892059326
			vertex 33.85256576538086 20 -3.187119960784912
		endloop
	endfacet
	facet normal 0.8090152581451383 0 -0.58778764200037
		outer loop
			vertex 34.221641540527344 0 -2.679133892059326
			vertex 33.85256576538086 0 -3.187119960784912
			vertex 33.85256576538086 20 -3.187119960784912
		endloop
	endfacet
	facet normal 0.7289702134547529 0 -0.6845454169708042
		outer loop
			vertex 33.85256576538086 20 -3.187119960784912
			vertex 33.85256576538086 0 -3.187119960784912
			vertex 33.42273712158203 20 -3.644843101501465
		endloop
	endfacet
	facet normal 0.7289702134547529 0 -0.6845454169708042
		outer loop
			vertex 33.85256576538086 0 -3.187119960784912
			vertex 33.42273712158203 0 -3.644843101501465
			vertex 33.42273712158203 20 -3.644843101501465
		endloop
	endfacet
	facet normal 0.637423101156097 0 -0.7705139778826495
		outer loop
			vertex 33.42273712158203 20 -3.644843101501465
			vertex 33.42273712158203 0 -3.644843101501465
			vertex 32.938926696777344 20 -4.0450849533081055
		endloop
	endfacet
	facet normal 0.637423101156097 0 -0.7705139778826495
		outer loop
			vertex 33.42273712158203 0 -3.644843101501465
			vertex 32.938926696777344 0 -4.0450849533081055
			vertex 32.938926696777344 20 -4.0450849533081055
		endloop
	endfacet
	facet normal 0.5358262720802821 0 -0.8443282573434029
		outer loop
			vertex 32.938926696777344 20 -4.0450849533081055
			vertex 32.938926696777344 0 -4.0450849533081055
			vertex 32.40876770019531 20 -4.381533622741699
		endloop
	endfacet
	facet normal 0.5358262720802821 0 -0.8443282573434029
		outer loop
			vertex 32.938926696777344 0 -4.0450849533081055
			vertex 32.40876770019531 0 -4.381533622741699
			vertex 32.40876770019531 20 -4.381533622741699
		endloop
	endfacet
	facet normal 0.4257788598969242 0 -0.9048272555935057
		outer loop
			vertex 32.40876770019531 20 -4.381533622741699
			vertex 32.40876770019531 0 -4.381533622741699
			vertex 31.840621948242188 20 -4.6488823890686035
		endloop
	endfacet
	facet normal 0.4257788598969242 0 -0.9048272555935057
		outer loop
			vertex 32.40876770019531 0 -4.381533622741699
			vertex 31.840621948242188 0 -4.6488823890686035
			vertex 31.840621948242188 20 -4.6488823890686035
		endloop
	endfacet
	facet normal 0.3090180722662729 0 -0.9510561660663563
		outer loop
			vertex 31.840621948242188 20 -4.6488823890686035
			vertex 31.840621948242188 0 -4.6488823890686035
			vertex 31.243450164794922 20 -4.842916011810303
		endloop
	endfacet
	facet normal 0.3090180722662729 0 -0.9510561660663563
		outer loop
			vertex 31.840621948242188 0 -4.6488823890686035
			vertex 31.243450164794922 0 -4.842916011810303
			vertex 31.243450164794922 20 -4.842916011810303
		endloop
	endfacet
	facet normal 0.18738129081012145 0 -0.9822872552641274
		outer loop
			vertex 31.243450164794922 20 -4.842916011810303
			vertex 31.243450164794922 0 -4.842916011810303
			vertex 30.626667022705078 20 -4.960573673248291
		endloop
	endfacet
	facet normal 0.18738129081012145 0 -0.9822872552641274
		outer loop
			vertex 31.243450164794922 0 -4.842916011810303
			vertex 30.626667022705078 0 -4.960573673248291
			vertex 30.626667022705078 20 -4.960573673248291
		endloop
	endfacet
	facet normal 0.06279016980912182 0 -0.9980267504307395
		outer loop
			vertex 30.626667022705078 20 -4.960573673248291
			vertex 30.626667022705078 0 -4.960573673248291
			vertex 30 20 -5
		endloop
	endfacet
	facet normal 0.06279016980912182 0 -0.9980267504307395
		outer loop
			vertex 30.626667022705078 0 -4.960573673248291
			vertex 30 0 -5
			vertex 30 20 -5
		endloop
	endfacet
	facet normal -0.06279016980912182 0 -0.9980267504307395
		outer loop
			vertex 30 20 -5
			vertex 30 0 -5
			vertex 29.373332977294922 20 -4.960573673248291
		endloop
	endfacet
	facet normal -0.06279016980912182 0 -0.9980267504307395
		outer loop
			vertex 30 0 -5
			vertex 29.373332977294922 0 -4.960573673248291
			vertex 29.373332977294922 20 -4.960573673248291
		endloop
	endfacet
	facet normal -0.18738129081012145 0 -0.9822872552641274
		outer loop
			vertex 29.373332977294922 20 -4.960573673248291
			vertex 29.373332977294922 0 -4.960573673248291
			vertex 28.756549835205078 20 -4.842916011810303
		endloop
	endfacet
	facet normal -0.18738129081012145 0 -0.9822872552641274
		outer loop
			vertex 29.373332977294922 0 -4.960573673248291
			vertex 28.756549835205078 0 -4.842916011810303
			vertex 28.756549835205078 20 -4.842916011810303
		endloop
	endfacet
	facet normal -0.3090180722662729 0 -0.9510561660663563
		outer loop
			vertex 28.756549835205078 20 -4.842916011810303
			vertex 28.756549835205078 0 -4.842916011810303
			vertex 28.159378051757812 20 -4.6488823890686035
		endloop
	endfacet
	facet normal -0.3090180722662729 0 -0.9510561660663563
		outer loop
			vertex 28.756549835205078 0 -4.842916011810303
			vertex 28.159378051757812 0 -4.6488823890686035
			vertex 28.159378051757812 20 -4.6488823890686035
		endloop
	endfacet
	facet normal -0.4257788598969242 0 -0.9048272555935057
		outer loop
			vertex 28.159378051757812 20 -4.6488823890686035
			vertex 28.159378051757812 0 -4.6488823890686035
			vertex 27.591232299804688 20 -4.381533622741699
		endloop
	endfacet
	facet normal -0.4257788598969242 0 -0.9048272555935057
		outer loop
			vertex 28.159378051757812 0 -4.6488823890686035
			vertex 27.591232299804688 0 -4.381533622741699
			vertex 27.591232299804688 20 -4.381533622741699
		endloop
	endfacet
	facet normal -0.5358262720802821 0 -0.8443282573434029
		outer loop
			vertex 27.591232299804688 20 -4.381533622741699
			vertex 27.591232299804688 0 -4.381533622741699
			vertex 27.061073303222656 20 -4.0450849533081055
		endloop
	endfacet
	facet normal -0.5358262720802821 0 -0.8443282573434029
		outer loop
			vertex 27.591232299804688 0 -4.381533622741699
			vertex 27.061073303222656 0 -4.0450849533081055
			vertex 27.061073303222656 20 -4.0450849533081055
		endloop
	endfacet
	facet normal -0.637424593072096 0 -0.770512743662863
		outer loop
			vertex 27.061073303222656 20 -4.0450849533081055
			vertex 27.061073303222656 0 -4.0450849533081055
			vertex 26.5772647857666 20 -3.644843101501465
		endloop
	endfacet
	facet normal -0.637424593072096 0 -0.770512743662863
		outer loop
			vertex 27.061073303222656 0 -4.0450849533081055
			vertex 26.5772647857666 0 -3.644843101501465
			vertex 26.5772647857666 20 -3.644843101501465
		endloop
	endfacet
	facet normal -0.728968697631185 0 -0.6845470311628662
		outer loop
			vertex 26.5772647857666 20 -3.644843101501465
			vertex 26.5772647857666 0 -3.644843101501465
			vertex 26.14743423461914 20 -3.187119960784912
		endloop
	endfacet
	facet normal -0.728968697631185 0 -0.6845470311628662
		outer loop
			vertex 26.5772647857666 0 -3.644843101501465
			vertex 26.14743423461914 0 -3.187119960784912
			vertex 26.14743423461914 20 -3.187119960784912
		endloop
	endfacet
	facet normal -0.8090167026273476 0 -0.5877856538483855
		outer loop
			vertex 26.14743423461914 20 -3.187119960784912
			vertex 26.14743423461914 0 -3.187119960784912
			vertex 25.77836036682129 20 -2.679133892059326
		endloop
	endfacet
	facet normal -0.8090167026273476 0 -0.5877856538483855
		outer loop
			vertex 26.14743423461914 0 -3.187119960784912
			vertex 25.77836036682129 0 -2.679133892059326
			vertex 25.77836036682129 20 -2.679133892059326
		endloop
	endfacet
	facet normal -0.8763064269135007 0 -0.4817541345438499
		outer loop
			vertex 25.77836036682129 20 -2.679133892059326
			vertex 25.77836036682129 0 -2.679133892059326
			vertex 25.47586441040039 20 -2.128896474838257
		endloop
	endfacet
	facet normal -0.8763064269135007 0 -0.4817541345438499
		outer loop
			vertex 25.77836036682129 0 -2.679133892059326
			vertex 25.47586441040039 0 -2.128896474838257
			vertex 25.47586441040039 20 -2.128896474838257
		endloop
	endfacet
	facet normal -0.9297762499232 0 -0.3681251486638091
		outer loop
			vertex 25.47586441040039 20 -2.128896474838257
			vertex 25.47586441040039 0 -2.128896474838257
			vertex 25.24471664428711 20 -1.5450849533081055
		endloop
	endfacet
	facet normal -0.9297762499232 0 -0.3681251486638091
		outer loop
			vertex 25.47586441040039 0 -2.128896474838257
			vertex 25.24471664428711 0 -1.5450849533081055
			vertex 25.24471664428711 20 -1.5450849533081055
		endloop
	endfacet
	facet normal -0.9685835222489966 0 -0.2486884806896527
		outer loop
			vertex 25.24471664428711 20 -1.5450849533081055
			vertex 25.24471664428711 0 -1.5450849533081055
			vertex 25.088563919067383 20 -0.9369065761566162
		endloop
	endfacet
	facet normal -0.9685835222489966 0 -0.2486884806896527
		outer loop
			vertex 25.24471664428711 0 -1.5450849533081055
			vertex 25.088563919067383 0 -0.9369065761566162
			vertex 25.088563919067383 20 -0.9369065761566162
		endloop
	endfacet
	facet normal -0.9921147378810865 0 -0.12533294410945217
		outer loop
			vertex 25.088563919067383 20 -0.9369065761566162
			vertex 25.088563919067383 0 -0.9369065761566162
			vertex 25.00986671447754 20 -0.31395259499549866
		endloop
	endfacet
	facet normal -0.9921147378810865 0 -0.12533294410945217
		outer loop
			vertex 25.088563919067383 0 -0.9369065761566162
			vertex 25.00986671447754 0 -0.31395259499549866
			vertex 25.00986671447754 20 -0.31395259499549866
		endloop
	endfacet
	facet normal -1 0 0
		outer loop
			vertex 25.00986671447754 20 -0.31395259499549866
			vertex 25.00986671447754 0 -0.31395259499549866
			vertex 25.00986671447754 20 0.31395259499549866
		endloop
	endfacet
	facet normal -1 0 0
		outer loop
			vertex 25.00986671447754 0 -0.31395259499549866
			vertex 25.00986671447754 0 0.31395259499549866
			vertex 25.00986671447754 20 0.31395259499549866
		endloop
	endfacet
	facet normal -0.9921147378810865 0 0.12533294410945217
		outer loop
			vertex 25.00986671447754 20 0.31395259499549866
			vertex 25.00986671447754 0 0.31395259499549866
			vertex 25.088563919067383 20 0.9369065761566162
		endloop
	endfacet
	facet normal -0.9921147378810865 0 0.12533294410945217
		outer loop
			vertex 25.00986671447754 0 0.31395259499549866
			vertex 25.088563919067383 0 0.9369065761566162
			vertex 25.088563919067383 20 0.9369065761566162
		endloop
	endfacet
	facet normal -0.9685835222489966 0 0.2486884806896527
		outer loop
			vertex 25.088563919067383 20 0.9369065761566162
			vertex 25.088563919067383 0 0.9369065761566162
			vertex 25.24471664428711 20 1.5450849533081055
		endloop
	endfacet
	facet normal -0.9685835222489966 0 0.2486884806896527
		outer loop
			vertex 25.088563919067383 0 0.9369065761566162
			vertex 25.24471664428711 0 1.5450849533081055
			vertex 25.24471664428711 20 1.5450849533081055
		endloop
	endfacet
	facet normal -0.9297762499232 0 0.3681251486638091
		outer loop
			vertex 25.24471664428711 20 1.5450849533081055
			vertex 25.24471664428711 0 1.5450849533081055
			vertex 25.47586441040039 20 2.128896474838257
		endloop
	endfacet
	facet normal -0.9297762499232 0 0.3681251486638091
		outer loop
			vertex 25.24471664428711 0 1.5450849533081055
			vertex 25.47586441040039 0 2.128896474838257
			vertex 25.47586441040039 20 2.128896474838257
		endloop
	endfacet
	facet normal -0.8763064269135007 0 0.4817541345438499
		outer loop
			vertex 25.47586441040039 20 2.128896474838257
			vertex 25.47586441040039 0 2.128896474838257
			vertex 25.77836036682129 20 2.679133892059326
		endloop
	endfacet
	facet normal -0.8763064269135007 0 0.4817541345438499
		outer loop
			vertex 25.47586441040039 0 2.128896474838257
			vertex 25.77836036682129 0 2.679133892059326
			vertex 25.77836036682129 20 2.679133892059326
		endloop
	endfacet
	facet normal -0.8090167026273476 0 0.5877856538483855
		outer loop
			vertex 25.77836036682129 20 2.679133892059326
			vertex 25.77836036682129 0 2.679133892059326
			vertex 26.14743423461914 20 3.187119960784912
		endloop
	endfacet
	facet normal -0.8090167026273476 0 0.5877856538483855
		outer loop
			vertex 25.77836036682129 0 2.679133892059326
			vertex 26.14743423461914 0 3.187119960784912
			vertex 26.14743423461914 20 3.187119960784912
		endloop
	endfacet
	facet normal -0.728968697631185 0 0.6845470311628662
		outer loop
			vertex 26.14743423461914 20 3.187119960784912
			vertex 26.14743423461914 0 3.187119960784912
			vertex 26.5772647857666 20 3.644843101501465
		endloop
	endfacet
	facet normal -0.728968697631185 0 0.6845470311628662
		outer loop
			vertex 26.14743423461914 0 3.187119960784912
			vertex 26.5772647857666 0 3.644843101501465
			vertex 26.5772647857666 20 3.644843101501465
		endloop
	endfacet
	facet normal -0.637424593072096 0 0.770512743662863
		outer loop
			vertex 26.5772647857666 20 3.644843101501465
			vertex 26.5772647857666 0 3.644843101501465
			vertex 27.061073303222656 20 4.0450849533081055
		endloop
	endfacet
	facet normal -0.637424593072096 0 0.770512743662863
		outer loop
			vertex 26.5772647857666 0 3.644843101501465
			vertex 27.061073303222656 0 4.0450849533081055
			vertex 27.061073303222656 20 4.0450849533081055
		endloop
	endfacet
	facet normal -0.5358262720802821 0 0.8443282573434029
		outer loop
			vertex 27.061073303222656 20 4.0450849533081055
			vertex 27.061073303222656 0 4.0450849533081055
			vertex 27.591232299804688 20 4.381533622741699
		endloop
	endfacet
	facet normal -0.5358262720802821 0 0.8443282573434029
		outer loop
			vertex 27.061073303222656 0 4.0450849533081055
			vertex 27.591232299804688 0 4.381533622741699
			vertex 27.591232299804688 20 4.381533622741699
		endloop
	endfacet
	facet normal -0.4257788598969242 0 0.9048272555935057
		outer loop
			vertex 27.591232299804688 20 4.381533622741699
			vertex 27.591232299804688 0 4.381533622741699
			vertex 28.159378051757812 20 4.6488823890686035
		endloop
	endfacet
	facet normal -0.4257788598969242 0 0.9048272555935057
		outer loop
			vertex 27.591232299804688 0 4.381533622741699
			vertex 28.159378051757812 0 4.6488823890686035
			vertex 28.159378051757812 20 4.6488823890686035
		endloop
	endfacet
	facet normal -0.3090180722662729 0 0.9510561660663563
		outer loop
			vertex 28.159378051757812 20 4.6488823890686035
			vertex 28.159378051757812 0 4.6488823890686035
			vertex 28.756549835205078 20 4.842916011810303
		endloop
	endfacet
	facet normal -0.3090180722662729 0 0.9510561660663563
		outer loop
			vertex 28.159378051757812 0 4.6488823890686035
			vertex 28.756549835205078 0 4.842916011810303
			vertex 28.756549835205078 20 4.842916011810303
		endloop
	endfacet
	facet normal -0.18738129081012145 0 0.9822872552641274
		outer loop
			vertex 28.756549835205078 20 4.842916011810303
			vertex 28.756549835205078 0 4.842916011810303
			vertex 29.373332977294922 20 4.960573673248291
		endloop
	endfacet
	facet normal -0.18738129081012145 0 0.9822872552641274
		outer loop
			vertex 28.756549835205078 0 4.842916011810303
			vertex 29.373332977294922 0 4.960573673248291
			vertex 29.373332977294922 20 4.960573673248291
		endloop
	endfacet
	facet normal -0.06279016980912182 0 0.9980267504307395
		outer loop
			vertex 29.373332977294922 20 4.960573673248291
			vertex 29.373332977294922 0 4.960573673248291
			vertex 30 20 5
		endloop
	endfacet
	facet normal -0.06279016980912182 0 0.9980267504307395
		outer loop
			vertex 29.373332977294922 0 4.960573673248291
			vertex 30 0 5
			vertex 30 20 5
		endloop
	endfacet
	facet normal 0 1 0
		outer loop
			vertex 30 20 5
			vertex 30.626667022705078 20 4.960573673248291
			vertex 30 20 0
		endloop
	endfacet
	facet normal 0 1 0
		outer loop
			vertex 30.626667022705078 20 4.960573673248291
			vertex 31.243450164794922 20 4.842916011810303
			vertex 30 20 0
		endloop
	endfacet
	facet normal 0 1 0
		outer loop
			vertex 31.243450164794922 20 4.842916011810303
			vertex 31.840621948242188 20 4.6488823890686035
			vertex 30 20 0
		endloop
	endfacet
	facet normal 0 1 0
		outer loop
			vertex 31.840621948242188 20 4.6488823890686035
			vertex 32.40876770019531 20 4.381533622741699
			vertex 30 20 0
		endloop
	endfacet
	facet normal 0 1 0
		outer loop
			vertex 32.40876770019531 20 4.381533622741699
			vertex 32.938926696777344 20 4.0450849533081055
			vertex 30 20 0
		endloop
	endfacet
	facet normal 0 1 0
		outer loop
			vertex 32.938926696777344 20 4.0450849533081055
			vertex 33.42273712158203 20 3.644843101501465
			vertex 30 20 0
		endloop
	endfacet
	facet normal 0 1 0
		outer loop
			vertex 33.42273712158203 20 3.644843101501465
			vertex 33.85256576538086 20 3.187119960784912
			vertex 30 20 0
		endloop
	endfacet
	facet normal 0 1 0
		outer loop
			vertex 33.85256576538086 20 3.187119960784912
			vertex 34.221641540527344 20 2.679133892059326
			vertex 30 20 0
		endloop
	endfacet
	facet normal 0 1 0
		outer loop
			vertex 34.221641540527344 20 2.679133892059326
			vertex 34.52413558959961 20 2.128896474838257
			vertex 30 20 0
		endloop
	endfacet
	facet normal 0 1 0
		outer loop
			vertex 34.52413558959961 20 2.128896474838257
			vertex 34.75528335571289 20 1.5450849533081055
			vertex 30 20 0
		endloop
	endfacet
	facet normal 0 1 0
		outer loop
			vertex 34.75528335571289 20 1.5450849533081055
			vertex 34.91143798828125 20 0.9369065761566162
			vertex 30 20 0
		endloop
	endfacet
	facet normal 0 1 0
		outer loop
			vertex 34.91143798828125 20 0.9369065761566162
			vertex 34.990135192871094 20 0.31395259499549866
			vertex 30 20 0
		endloop
	endfacet
	facet normal 0 1 0
		outer loop
			vertex 34.990135192871094 20 0.31395259499549866
			vertex 34.990135192871094 20 -0.31395259499549866
			vertex 30 20 0
		endloop
	endfacet
	facet normal 0 1 0
		outer loop
			vertex 34.990135192871094 20 -0.31395259499549866
			vertex 34.91143798828125 20 -0.9369065761566162
			vertex 30 20 0
		endloop
	endfacet
	facet normal 0 1 0
		outer loop
			vertex 34.91143798828125 20 -0.9369065761566162
			vertex 34.75528335571289 20 -1.5450849533081055
			vertex 30 20 0
		endloop
	endfacet
	facet normal 0 1 0
		outer loop
			vertex 34.75528335571289 20 -1.5450849533081055
			vertex 34.52413558959961 20 -2.128896474838257
			vertex 30 20 0
		endloop
	endfacet
	facet normal 0 1 0
		outer loop
			vertex 34.52413558959961 20 -2.128896474838257
			vertex 34.221641540527344 20 -2.679133892059326
			vertex 30 20 0
		endloop
	endfacet
	facet normal 0 1 0
		outer loop
			vertex 34.221641540527344 20 -2.679133892059326
			vertex 33.85256576538086 20 -3.187119960784912
			vertex 30 20 0
		endloop
	endfacet
	facet normal 0 1 0
		outer loop
			vertex 33.85256576538086 20 -3.187119960784912
			vertex 33.42273712158203 20 -3.644843101501465
			vertex 30 20 0
		endloop
	endfacet
	facet normal 0 1 0
		outer loop
			vertex 33.42273712158203 20 -3.644843101501465
			vertex 32.938926696777344 20 -4.0450849533081055
			vertex 30 20 0
		endloop
	endfacet
	facet normal 0 1 0
		outer loop
			vertex 32.938926696777344 20 -4.0450849533081055
			vertex 32.40876770019531 20 -4.381533622741699
			vertex 30 20 0
		endloop
	endfacet
	facet normal 0 1 0
		outer loop
			vertex 32.40876770019531 20 -4.381533622741699
			vertex 31.840621948242188 20 -4.6488823890686035
			vertex 30 20 0
		endloop
	endfacet
	facet normal 0 1 0
		outer loop
			vertex 31.840621948242188 20 -4.6488823890686035
			vertex 31.243450164794922 20 -4.842916011810303
			vertex 30 20 0
		endloop
	endfacet
	facet normal 0 1 0
		outer loop
			vertex 31.243450164794922 20 -4.842916011810303
			vertex 30.626667022705078 20 -4.960573673248291
			vertex 30 20 0
		endloop
	endfacet
	facet normal 0 1 0
		outer loop
			vertex 30.626667022705078 20 -4.960573673248291
			vertex 30 20 -5
			vertex 30 20 0
		endloop
	endfacet
	facet normal 0 1 0
		outer loop
			vertex 30 20 -5
			vertex 29.373332977294922 20 -4.960573673248291
			vertex 30 20 0
		endloop
	endfacet
	facet normal 0 1 0
		outer loop
			vertex 29.373332977294922 20 -4.960573673248291
			vertex 28.756549835205078 20 -4.842916011810303
			vertex 30 20 0
		endloop
	endfacet
	facet normal 0 1 0
		outer loop
			vertex 28.756549835205078 20 -4.842916011810303
			vertex 28.159378051757812 20 -4.6488823890686035
			vertex 30 20 0
		endloop
	endfacet
	facet normal 0 1 0
		outer loop
			vertex 28.159378051757812 20 -4.6488823890686035
			vertex 27.591232299804688 20 -4.381533622741699
			vertex 30 20 0
		endloop
	endfacet
	facet normal 0 1 0
		outer loop
			vertex 27.591232299804688 20 -4.381533622741699
			vertex 27.061073303222656 20 -4.0450849533081055
			vertex 30 20 0
		endloop
	endfacet
	facet normal 0 1 0
		outer loop
			vertex 27.061073303222656 20 -4.0450849533081055
			vertex 26.5772647857666 20 -3.644843101501465
			vertex 30 20 0
		endloop
	endfacet
	facet normal 0 1 0
		outer loop
			vertex 26.5772647857666 20 -3.644843101501465
			vertex 26.14743423461914 20 -3.187119960784912
			vertex 30 20 0
		endloop
	endfacet
	facet normal 0 1 0
		outer loop
			vertex 26.14743423461914 20 -3.187119960784912
			vertex 25.77836036682129 20 -2.679133892059326
			vertex 30 20 0
		endloop
	endfacet
	facet normal 0 1 0
		outer loop
			vertex 25.77836036682129 20 -2.679133892059326
			vertex 25.47586441040039 20 -2.128896474838257
			vertex 30 20 0
		endloop
	endfacet
	facet normal 0 1 0
		outer loop
			vertex 25.47586441040039 20 -2.128896474838257
			vertex 25.24471664428711 20 -1.5450849533081055
			vertex 30 20 0
		endloop
	endfacet
	facet normal 0 1 0
		outer loop
			vertex 25.24471664428711 20 -1.5450849533081055
			vertex 25.088563919067383 20 -0.9369065761566162
			vertex 30 20 0
		endloop
	endfacet
	facet normal 0 1 0
		outer loop
			vertex 25.088563919067383 20 -0.9369065761566162
			vertex 25.00986671447754 20 -0.31395259499549866
			vertex 30 20 0
		endloop
	endfacet
	facet normal 0 1 0
		outer loop
			vertex 25.00986671447754 20 -0.31395259499549866
			vertex 25.00986671447754 20 0.31395259499549866
			vertex 30 20 0
		endloop
	endfacet
	facet normal 0 1 0
		outer loop
			vertex 25.00986671447754 20 0.31395259499549866
			vertex 25.088563919067383 20 0.9369065761566162
			vertex 30 20 0
		endloop
	endfacet
	facet normal 0 1 0
		outer loop
			vertex 25.088563919067383 20 0.9369065761566162
			vertex 25.24471664428711 20 1.5450849533081055
			vertex 30 20 0
		endloop
	endfacet
	facet normal 0 1 0
		outer loop
			vertex 25.24471664428711 20 1.5450849533081055
			vertex 25.47586441040039 20 2.128896474838257
			vertex 30 20 0
		endloop
	endfacet
	facet normal 0 1 0
		outer loop
			vertex 25.47586441040039 20 2.128896474838257
			vertex 25.77836036682129 20 2.679133892059326
			vertex 30 20 0
		endloop
	endfacet
	facet normal 0 1 0
		outer loop
			vertex 25.77836036682129 20 2.679133892059326
			vertex 26.14743423461914 20 3.187119960784912
			vertex 30 20 0
		endloop
	endfacet
	facet normal 0 1 0
		outer loop
			vertex 26.14743423461914 20 3.187119960784912
			vertex 26.5772647857666 20 3.644843101501465
			vertex 30 20 0
		endloop
	endfacet
	facet normal 0 1 0
		outer loop
			vertex 26.5772647857666 20 3.644843101501465
			vertex 27.061073303222656 20 4.0450849533081055
			vertex 30 20 0
		endloop
	endfacet
	facet normal 0 1 0
		outer loop
			vertex 27.061073303222656 20 4.0450849533081055
			vertex 27.591232299804688 20 4.381533622741699
			vertex 30 20 0
		endloop
	endfacet
	facet normal 0 1 0
		outer loop
			vertex 27.591232299804688 20 4.381533622741699
			vertex 28.159378051757812 20 4.6488823890686035
			vertex 30 20 0
		endloop
	endfacet
	facet normal 0 1 0
		outer loop
			vertex 28.159378051757812 20 4.6488823890686035
			vertex 28.756549835205078 20 4.842916011810303
			vertex 30 20 0
		endloop
	endfacet
	facet normal 0 1 0
		outer loop
			vertex 28.756549835205078 20 4.842916011810303
			vertex 29.373332977294922 20 4.960573673248291
			vertex 30 20 0
		endloop
	endfacet
	facet normal 0 1 0
		outer loop
			vertex 29.373332977294922 20 4.960573673248291
			vertex 30 20 5
			vertex 30 20 0
		endloop
	endfacet
	facet normal 0 -1 0
		outer loop
			vertex 30.626667022705078 0 4.960573673248291
			vertex 30 0 5
			vertex 30 0 0
		endloop
	endfacet
	facet normal 0 -1 0
		outer loop
			vertex 31.243450164794922 0 4.842916011810303
			vertex 30.626667022705078 0 4.960573673248291
			vertex 30 0 0
		endloop
	endfacet
	facet normal 0 -1 0
		outer loop
			vertex 31.840621948242188 0 4.6488823890686035
			vertex 31.243450164794922 0 4.842916011810303
			vertex 30 0 0
		endloop
	endfacet
	facet normal 0 -1 0
		outer loop
			vertex 32.40876770019531 0 4.381533622741699
			vertex 31.840621948242188 0 4.6488823890686035
			vertex 30 0 0
		endloop
	endfacet
	facet normal 0 -1 0
		outer loop
			vertex 32.938926696777344 0 4.0450849533081055
			vertex 32.40876770019531 0 4.381533622741699
			vertex 30 0 0
		endloop
	endfacet
	facet normal 0 -1 0
		outer loop
			vertex 33.42273712158203 0 3.644843101501465
			vertex 32.938926696777344 0 4.0450849533081055
			vertex 30 0 0
		endloop
	endfacet
	facet normal 0 -1 0
		outer loop
			vertex 33.85256576538086 0 3.187119960784912
			vertex 33.42273712158203 0 3.644843101501465
			vertex 30 0 0
		endloop
	endfacet
	facet normal 0 -1 0
		outer loop
			vertex 34.221641540527344 0 2.679133892059326
			vertex 33.85256576538086 0 3.187119960784912
			vertex 30 0 0
		endloop
	endfacet
	facet normal 0 -1 0
		outer loop
			vertex 34.52413558959961 0 2.128896474838257
			vertex 34.221641540527344 0 2.679133892059326
			vertex 30 0 0
		endloop
	endfacet
	facet normal 0 -1 0
		outer loop
			vertex 34.75528335571289 0 1.5450849533081055
			vertex 34.52413558959961 0 2.128896474838257
			vertex 30 0 0
		endloop
	endfacet
	facet normal 0 -1 0
		outer loop
			vertex 34.91143798828125 0 0.9369065761566162
			vertex 34.75528335571289 0 1.5450849533081055
			vertex 30 0 0
		endloop
	endfacet
	facet normal 0 -1 0
		outer loop
			vertex 34.990135192871094 0 0.31395259499549866
			vertex 34.91143798828125 0 0.9369065761566162
			vertex 30 0 0
		endloop
	endfacet
	facet normal 0 -1 0
		outer loop
			vertex 34.990135192871094 0 -0.31395259499549866
			vertex 34.990135192871094 0 0.31395259499549866
			vertex 30 0 0
		endloop
	endfacet
	facet normal 0 -1 0
		outer loop
			vertex 34.91143798828125 0 -0.9369065761566162
			vertex 34.990135192871094 0 -0.31395259499549866
			vertex 30 0 0
		endloop
	endfacet
	facet normal 0 -1 0
		outer loop
			vertex 34.75528335571289 0 -1.5450849533081055
			vertex 34.91143798828125 0 -0.9369065761566162
			vertex 30 0 0
		endloop
	endfacet
	facet normal 0 -1 0
		outer loop
			vertex 34.52413558959961 0 -2.128896474838257
			vertex 34.75528335571289 0 -1.5450849533081055
			vertex 30 0 0
		endloop
	endfacet
	facet normal 0 -1 0
		outer loop
			vertex 34.221641540527344 0 -2.679133892059326
			vertex 34.52413558959961 0 -2.128896474838257
			vertex 30 0 0
		endloop
	endfacet
	facet normal 0 -1 0
		outer loop
			vertex 33.85256576538086 0 -3.187119960784912
			vertex 34.221641540527344 0 -2.679133892059326
			vertex 30 0 0
		endloop
	endfacet
	facet normal 0 -1 0
		outer loop
			vertex 33.42273712158203 0 -3.644843101501465
			vertex 33.85256576538086 0 -3.187119960784912
			vertex 30 0 0
		endloop
	endfacet
	facet normal 0 -1 0
		outer loop
			vertex 32.938926696777344 0 -4.0450849533081055
			vertex 33.42273712158203 0 -3.644843101501465
			vertex 30 0 0
		endloop
	endfacet
	facet normal 0 -1 0
		outer loop
			vertex 32.40876770019531 0 -4.381533622741699
			vertex 32.938926696777344 0 -4.0450849533081055
			vertex 30 0 0
		endloop
	endfacet
	facet normal 0 -1 0
		outer loop
			vertex 31.840621948242188 0 -4.6488823890686035
			vertex 32.40876770019531 0 -4.381533622741699
			vertex 30 0 0
		endloop
	endfacet
	facet normal 0 -1 0
		outer loop
			vertex 31.243450164794922 0 -4.842916011810303
			vertex 31.840621948242188 0 -4.6488823890686035
			vertex 30 0 0
		endloop
	endfacet
	facet normal 0 -1 0
		outer loop
			vertex 30.626667022705078 0 -4.960573673248291
			vertex 31.243450164794922 0 -4.842916011810303
			vertex 30 0 0
		endloop
	endfacet
	facet normal 0 -1 0
		outer loop
			vertex 30 0 -5
			vertex 30.626667022705078 0 -4.960573673248291
			vertex 30 0 0
		endloop
	endfacet
	facet normal 0 -1 0
		outer loop
			vertex 29.373332977294922 0 -4.960573673248291
			vertex 30 0 -5
			vertex 30 0 0
		endloop
	endfacet
	facet normal 0 -1 0
		outer loop
			vertex 28.756549835205078 0 -4.842916011810303
			vertex 29.373332977294922 0 -4.960573673248291
			vertex 30 0 0
		endloop
	endfacet
	facet normal 0 -1 0
		outer loop
			vertex 28.159378051757812 0 -4.6488823890686035
			vertex 28.756549835205078 0 -4.842916011810303
			vertex 30 0 0
		endloop
	endfacet
	facet normal 0 -1 0
		outer loop
			vertex 27.591232299804688 0 -4.381533622741699
			vertex 28.159378051757812 0 -4.6488823890686035
			vertex 30 0 0
		endloop
	endfacet
	facet normal 0 -1 0
		outer loop
			vertex 27.061073303222656 0 -4.0450849533081055
			vertex 27.591232299804688 0 -4.381533622741699
			vertex 30 0 0
		endloop
	endfacet
	facet normal 0 -1 0
		outer loop
			vertex 26.5772647857666 0 -3.644843101501465
			vertex 27.061073303222656 0 -4.0450849533081055
			vertex 30 0 0
		endloop
	endfacet
	facet normal 0 -1 0
		outer loop
			vertex 26.14743423461914 0 -3.187119960784912
			vertex 26.5772647857666 0 -3.644843101501465
			vertex 30 0 0
		endloop
	endfacet
	facet normal 0 -1 0
		outer loop
			vertex 25.77836036682129 0 -2.679133892059326
			vertex 26.14743423461914 0 -3.187119960784912
			vertex 30 0 0
		endloop
	endfacet
	facet normal 0 -1 0
		outer loop
			vertex 25.47586441040039 0 -2.128896474838257
			vertex 25.77836036682129 0 -2.679133892059326
			vertex 30 0 0
		endloop
	endfacet
	facet normal 0 -1 0
		outer loop
			vertex 25.24471664428711 0 -1.5450849533081055
			vertex 25.47586441040039 0 -2.128896474838257
			vertex 30 0 0
		endloop
	endfacet
	facet normal 0 -1 0
		outer loop
			vertex 25.088563919067383 0 -0.9369065761566162
			vertex 25.24471664428711 0 -1.5450849533081055
			vertex 30 0 0
		endloop
	endfacet
	facet normal 0 -1 0
		outer loop
			vertex 25.00986671447754 0 -0.31395259499549866
			vertex 25.088563919067383 0 -0.9369065761566162
			vertex 30 0 0
		endloop
	endfacet
	facet normal 0 -1 0
		outer loop
			vertex 25.00986671447754 0 0.31395259499549866
			vertex 25.00986671447754 0 -0.31395259499549866
			vertex 30 0 0
		endloop
	endfacet
	facet normal 0 -1 0
		outer loop
			vertex 25.088563919067383 0 0.9369065761566162
			vertex 25.00986671447754 0 0.31395259499549866
			vertex 30 0 0
		endloop
	endfacet
	facet normal 0 -1 0
		outer loop
			vertex 25.24471664428711 0 1.5450849533081055
			vertex 25.088563919067383 0 0.9369065761566162
			vertex 30 0 0
		endloop
	endfacet
	facet normal 0 -1 0
		outer loop
			vertex 25.47586441040039 0 2.128896474838257
			vertex 25.24471664428711 0 1.5450849533081055
			vertex 30 0 0
		endloop
	endfacet
	facet normal 0 -1 0
		outer loop
			vertex 25.77836036682129 0 2.679133892059326
			vertex 25.47586441040039 0 2.128896474838257
			vertex 30 0 0
		endloop
	endfacet
	facet normal 0 -1 0
		outer loop
			vertex 26.14743423461914 0 3.187119960784912
			vertex 25.77836036682129 0 2.679133892059326
			vertex 30 0 0
		endloop
	endfacet
	facet normal 0 -1 0
		outer loop
			vertex 26.5772647857666 0 3.644843101501465
			vertex 26.14743423461914 0 3.187119960784912
			vertex 30 0 0
		endloop
	endfacet
	facet normal 0 -1 0
		outer loop
			vertex 27.061073303222656 0 4.0450849533081055
			vertex 26.5772647857666 0 3.644843101501465
			vertex 30 0 0
		endloop
	endfacet
	facet normal 0 -1 0
		outer loop
			vertex 27.591232299804688 0 4.381533622741699
			vertex 27.061073303222656 0 4.0450849533081055
			vertex 30 0 0
		endloop
	endfacet
	facet normal 0 -1 0
		outer loop
			vertex 28.159378051757812 0 4.6488823890686035
			vertex 27.591232299804688 0 4.381533622741699
			vertex 30 0 0
		endloop
	endfacet
	facet normal 0 -1 0
		outer loop
			vertex 28.756549835205078 0 4.842916011810303
			vertex 28.159378051757812 0 4.6488823890686035
			vertex 30 0 0
		endloop
	endfacet
	facet normal 0 -1 0
		outer loop
			vertex 29.373332977294922 0 4.960573673248291
			vertex 28.756549835205078 0 4.842916011810303
			vertex 30 0 0
		endloop
	endfacet
	facet normal 0 -1 0
		outer loop
			vertex 30 0 5
			vertex 29.373332977294922 0 4.960573673248291
			vertex 30 0 0
		endloop
	endfacet
	facet normal 1 0 0
		outer loop
			vertex 5 10 5
			vertex 5 0 5
			vertex 5 10 -5
		endloop
	endfacet
	facet normal 1 0 0
		outer loop
			vertex 5 0 5
			vertex 5 0 -5
			vertex 5 10 -5
		endloop
	endfacet
	facet normal -1 0 0
		outer loop
			vertex -5 10 -5
			vertex -5 0 -5
			vertex -5 10 5
		endloop
	endfacet
	facet normal -1 0 0
		outer loop
			vertex -5 0 -5
			vertex -5 0 5
			vertex -5 10 5
		endloop
	endfacet
	facet normal 0 1 0
		outer loop
			vertex -5 10 -5
			vertex -5 10 5
			vertex 5 10 -5
		endloop
	endfacet
	facet normal 0 1 0
		outer loop
			vertex -5 10 5
			vertex 5 10 5
			vertex 5 10 -5
		endloop
	endfacet
	facet normal 0 -1 0
		outer loop
			vertex -5 0 5
			vertex -5 0 -5
			vertex 5 0 5
		endloop
	endfacet
	facet normal 0 -1 0
		outer loop
			vertex -5 0 -5
			vertex 5 0 -5
			vertex 5 0 5
		endloop
	endfacet
	facet normal 0 0 1
		outer loop
			vertex -5 10 5
			vertex -5 0 5
			vertex 5 10 5
		endloop
	endfacet
	facet normal 0 0 1
		outer loop
			vertex -5 0 5
			vertex 5 0 5
			vertex 5 10 5
		endloop
	endfacet
	facet normal 0 0 -1
		outer loop
			vertex 5 10 -5
			vertex 5 0 -5
			vertex -5 10 -5
		endloop
	endfacet
	facet normal 0 0 -1
		outer loop
			vertex 5 0 -5
			vertex -5 0 -5
			vertex -5 10 -5
		endloop
	endfacet
endsolid exported
